<svg width="41" height="40" viewBox="0 0 41 40" fill="none" xmlns="http://www.w3.org/2000/svg">
<path fill-rule="evenodd" clip-rule="evenodd" d="M13.8667 0H26.1333C37.3333 0 40 2.66667 40 13.8667V26.1333C40 37.3333 37.3333 40 26.1333 40H13.8667C2.66667 40 0 37.3333 0 26.1333V13.8667C0 2.66667 2.66667 0 13.8667 0Z" fill="#F7931E"/>
<path d="M20.08 5.97803C16.0953 5.97803 12.8652 9.20824 12.8652 13.1928C12.8652 17.1774 16.0953 20.4079 20.08 20.4079C24.0646 20.4079 27.2948 17.1774 27.2948 13.1928C27.2948 9.20824 24.0646 5.97803 20.08 5.97803ZM20.08 16.1754C18.4329 16.1754 17.0976 14.84 17.0976 13.1929C17.0976 11.5458 18.4329 10.2105 20.08 10.2105C21.7271 10.2105 23.0624 11.5458 23.0624 13.1929C23.0624 14.84 21.7271 16.1754 20.08 16.1754Z" fill="white"/>
<path d="M22.6275 26.1489C25.5158 25.5605 27.2467 24.1927 27.3383 24.1192C28.1835 23.4414 28.3192 22.2068 27.6414 21.3615C26.9637 20.5163 25.7291 20.3805 24.8838 21.0582C24.8659 21.0727 23.0198 22.4889 19.9824 22.4909C16.945 22.4889 15.0599 21.0727 15.0421 21.0582C14.1967 20.3805 12.9621 20.5163 12.2844 21.3615C11.6066 22.2068 11.7424 23.4414 12.5875 24.1192C12.6804 24.1937 14.4827 25.5971 17.452 26.1717L13.3137 30.4966C12.5616 31.2765 12.5842 32.5184 13.3642 33.2704C13.7449 33.6375 14.2355 33.8199 14.7257 33.8199C15.2397 33.8199 15.7531 33.6191 16.138 33.2198L19.9825 29.1245L24.2152 33.2464C24.9821 34.012 26.224 34.0108 26.9895 33.2442C27.755 32.4775 27.754 31.2354 26.9873 30.4699L22.6275 26.1489Z" fill="white"/>
</svg>
