<svg width="29" height="43" viewBox="0 0 29 43" fill="none" xmlns="http://www.w3.org/2000/svg">
<path d="M1.03223 5.0625C1.03223 2.81884 2.85107 1 5.09473 1H23.3397C25.5834 1 27.4022 2.81884 27.4022 5.0625V5.0625C27.4022 7.30616 25.5834 9.125 23.3397 9.125H5.09473C2.85107 9.125 1.03223 7.30616 1.03223 5.0625V5.0625Z" fill="white" stroke="white" stroke-width="2" stroke-linecap="round" stroke-linejoin="round"/>
<path d="M3.04687 23.3437C4.72962 23.3437 6.09375 21.9796 6.09375 20.2969C6.09375 18.6142 4.72962 17.25 3.04687 17.25C1.36413 17.25 0 18.6142 0 20.2969C0 21.9796 1.36413 23.3437 3.04687 23.3437Z" fill="white"/>
<path d="M14.2187 23.3437C15.9014 23.3437 17.2656 21.9796 17.2656 20.2969C17.2656 18.6142 15.9014 17.25 14.2187 17.25C12.5361 17.25 11.1719 18.6142 11.1719 20.2969C11.1719 21.9796 12.5361 23.3437 14.2187 23.3437Z" fill="white"/>
<path d="M25.3906 23.3437C27.0733 23.3437 28.4375 21.9796 28.4375 20.2969C28.4375 18.6142 27.0733 17.25 25.3906 17.25C23.7079 17.25 22.3438 18.6142 22.3438 20.2969C22.3438 21.9796 23.7079 23.3437 25.3906 23.3437Z" fill="white"/>
<path d="M3.04687 32.1445C4.72962 32.1445 6.09375 30.7803 6.09375 29.0977C6.09375 27.415 4.72962 26.0508 3.04687 26.0508C1.36413 26.0508 0 27.415 0 29.0977C0 30.7803 1.36413 32.1445 3.04687 32.1445Z" fill="white"/>
<path d="M14.2187 33.5C15.9014 33.5 17.2656 32.1358 17.2656 30.4531C17.2656 28.7704 15.9014 27.4062 14.2187 27.4062C12.5361 27.4062 11.1719 28.7704 11.1719 30.4531C11.1719 32.1358 12.5361 33.5 14.2187 33.5Z" fill="white"/>
<path d="M3.04687 42.3008C4.72962 42.3008 6.09375 40.9366 6.09375 39.2539C6.09375 37.5712 4.72962 36.207 3.04687 36.207C1.36413 36.207 0 37.5712 0 39.2539C0 40.9366 1.36413 42.3008 3.04687 42.3008Z" fill="white"/>
<path d="M14.2187 42.3008C15.9014 42.3008 17.2656 40.9366 17.2656 39.2539C17.2656 37.5712 15.9014 36.207 14.2187 36.207C12.5361 36.207 11.1719 37.5712 11.1719 39.2539C11.1719 40.9366 12.5361 42.3008 14.2187 42.3008Z" fill="white"/>
<path d="M28.4375 29.0977C28.4375 27.415 27.0733 26.0508 25.3906 26.0508C23.7079 26.0508 22.3438 27.415 22.3438 29.0977V39.2539C22.3438 40.9366 23.7079 42.3008 25.3906 42.3008C27.0733 42.3008 28.4375 40.9366 28.4375 39.2539V29.0977Z" fill="white"/>
</svg>
