<svg width="46" height="38" viewBox="0 0 46 38" fill="none" xmlns="http://www.w3.org/2000/svg">
<path d="M25.3333 28.3332V4.99984C25.3333 4.381 25.0875 3.78751 24.6499 3.34992C24.2123 2.91234 23.6188 2.6665 23 2.6665H4.33333C3.71449 2.6665 3.121 2.91234 2.68342 3.34992C2.24583 3.78751 2 4.381 2 4.99984V28.3332C2 28.952 2.24583 29.5455 2.68342 29.9831C3.121 30.4207 3.71449 30.6665 4.33333 30.6665H6.66667M25.3333 28.3332C25.3333 28.952 25.0875 29.5455 24.6499 29.9831C24.2123 30.4207 23.6188 30.6665 23 30.6665H16M25.3333 28.3332V9.6665C25.3333 9.04767 25.5792 8.45417 26.0168 8.01659C26.4543 7.579 27.0478 7.33317 27.6667 7.33317H33.7007C34.3195 7.3333 34.9128 7.57922 35.3503 8.01684L43.3163 15.9828C43.7539 16.4203 43.9999 17.0137 44 17.6325V28.3332C44 28.952 43.7542 29.5455 43.3166 29.9831C42.879 30.4207 42.2855 30.6665 41.6667 30.6665H39.3333M25.3333 28.3332C25.3333 28.952 25.5792 29.5455 26.0168 29.9831C26.4543 30.4207 27.0478 30.6665 27.6667 30.6665H30M6.66667 30.6665C6.66667 31.9042 7.15833 33.0912 8.0335 33.9663C8.90867 34.8415 10.0957 35.3332 11.3333 35.3332C12.571 35.3332 13.758 34.8415 14.6332 33.9663C15.5083 33.0912 16 31.9042 16 30.6665M6.66667 30.6665C6.66667 29.4288 7.15833 28.2418 8.0335 27.3667C8.90867 26.4915 10.0957 25.9998 11.3333 25.9998C12.571 25.9998 13.758 26.4915 14.6332 27.3667C15.5083 28.2418 16 29.4288 16 30.6665M39.3333 30.6665C39.3333 31.9042 38.8417 33.0912 37.9665 33.9663C37.0913 34.8415 35.9043 35.3332 34.6667 35.3332C33.429 35.3332 32.242 34.8415 31.3668 33.9663C30.4917 33.0912 30 31.9042 30 30.6665M39.3333 30.6665C39.3333 29.4288 38.8417 28.2418 37.9665 27.3667C37.0913 26.4915 35.9043 25.9998 34.6667 25.9998C33.429 25.9998 32.242 26.4915 31.3668 27.3667C30.4917 28.2418 30 29.4288 30 30.6665" stroke="#EEFFA2" stroke-width="4" stroke-linecap="round" stroke-linejoin="round"/>
</svg>
