<svg width="46" height="46" viewBox="0 0 46 46" fill="none" xmlns="http://www.w3.org/2000/svg">
<path d="M27.5 18.5H38.219C38.986 18.5 39.7402 18.6961 40.4101 19.0695C41.0799 19.443 41.6433 19.9815 42.0465 20.6338C42.4498 21.2862 42.6797 22.0308 42.7143 22.797C42.7489 23.5631 42.5871 24.3254 42.2442 25.0115L34.3692 40.7615C33.9954 41.5095 33.4206 42.1386 32.7092 42.5782C31.9978 43.0178 31.178 43.2504 30.3417 43.25H21.3035C20.9368 43.25 20.57 43.205 20.2122 43.115L11.75 41M27.5 18.5V7.25C27.5 6.05653 27.0259 4.91193 26.182 4.06802C25.3381 3.22411 24.1935 2.75 23 2.75H22.7862C21.6612 2.75 20.75 3.66125 20.75 4.78625C20.75 6.39275 20.2753 7.96325 19.382 9.29975L11.75 20.75V41M27.5 18.5H23M11.75 41H7.25C6.05653 41 4.91193 40.5259 4.06802 39.682C3.22411 38.8381 2.75 37.6935 2.75 36.5V23C2.75 21.8065 3.22411 20.6619 4.06802 19.818C4.91193 18.9741 6.05653 18.5 7.25 18.5H12.875" stroke="white" stroke-width="5" stroke-linecap="round" stroke-linejoin="round"/>
</svg>
