<svg width="121" height="116" viewBox="0 0 121 116" fill="none" xmlns="http://www.w3.org/2000/svg">
<path d="M57.6124 0C70.0152 0 81.5084 3.91503 90.9083 10.5735L87.25 14.4299C78.8185 8.6404 68.6067 5.25258 57.6124 5.25258C43.1555 5.25258 30.068 11.1007 20.5996 20.5514C11.1214 30.0119 5.26239 43.0751 5.26239 57.505C5.26239 71.935 11.1214 84.9981 20.5898 94.4488C30.0582 103.9 43.1457 109.748 57.6026 109.748C72.0595 109.748 85.147 103.9 94.6154 94.4488C101.032 88.0442 105.786 79.9798 108.192 70.9684C105.805 69.5918 104.201 67.0143 104.201 64.0561C104.201 60.4339 106.627 57.3683 109.943 56.4018C109.708 45.0472 105.844 34.5909 99.4572 26.1262L103.125 22.26C110.54 31.7888 115.019 43.7097 115.205 56.6654C118.13 57.8565 120.184 60.7171 120.184 64.0561C120.184 68.059 117.23 71.3784 113.376 71.9447C110.765 82.0203 105.483 91.0317 98.3324 98.1686C87.9054 108.576 73.5072 115.01 57.5929 115.01C41.6883 115.01 27.2803 108.576 16.8533 98.1686C6.44594 87.761 0 73.3799 0 57.505C0 41.6301 6.44594 27.249 16.8729 16.8414C27.2999 6.43392 41.6981 0 57.6124 0ZM57.6124 47.4489C59.3437 47.4489 60.9772 47.8883 62.4053 48.6596C62.4738 48.5619 62.552 48.4741 62.6303 48.396L95.6327 13.7465C96.6304 12.7019 98.2932 12.6531 99.3398 13.6587C100.386 14.6545 100.435 16.3142 99.4279 17.3589L66.4352 51.9986C66.357 52.0767 66.2787 52.1548 66.1907 52.2231C67.1395 53.756 67.6872 55.5621 67.6872 57.4952C67.6872 63.0505 63.178 67.5513 57.6124 67.5513C52.0468 67.5513 47.5376 63.0505 47.5376 57.4952C47.5376 51.9498 52.0468 47.4489 57.6124 47.4489ZM61.1044 88.7666C64.0584 88.7666 66.6406 90.3678 68.0296 92.75C74.006 90.9926 79.3467 87.761 83.6407 83.4848C90.3018 76.8361 94.4198 67.6489 94.4198 57.505C94.4198 50.1729 92.2679 43.3387 88.5608 37.6077L92.3168 33.6536C97.0021 40.4292 99.7507 48.6498 99.7507 57.505C99.7507 69.1134 95.036 79.6283 87.4065 87.2436C82.3691 92.2716 76.0601 96.0304 69.0077 98.0026C68.4013 101.81 65.105 104.729 61.1142 104.729C57.6124 104.729 54.6487 102.484 53.5629 99.3694C43.5468 98.4126 34.5577 93.9606 27.8281 87.2436C20.2084 79.6381 15.4839 69.1232 15.4839 57.505C15.4839 47.9664 18.6629 39.1796 24.0231 32.1208C23.5536 31.1054 23.2993 29.9827 23.2993 28.7916C23.2993 24.3884 26.8793 20.8151 31.2907 20.8151C32.7285 20.8151 34.0882 21.1958 35.2521 21.8597C41.7372 17.7982 49.396 15.4551 57.6124 15.4551C65.8875 15.4551 73.5952 17.8373 80.1096 21.9476L76.3633 25.8919C70.876 22.6408 64.4594 20.776 57.6124 20.776C50.7263 20.776 44.2706 22.6701 38.7539 25.9505C39.0962 26.8389 39.2821 27.7957 39.2821 28.8013C39.2821 33.2045 35.7021 36.7778 31.2907 36.7778C30.0387 36.7778 28.8453 36.4849 27.7889 35.9772C23.3971 42.0304 20.805 49.4699 20.805 57.5148C20.805 67.6587 24.923 76.8458 31.5841 83.4945C37.3551 89.2548 45.0335 93.1112 53.5923 94.0387C54.7073 90.9536 57.6515 88.7666 61.1044 88.7666ZM57.6124 30.8321C61.75 30.8321 65.6723 31.7693 69.174 33.4486L65.6234 37.1879C65.506 37.305 65.3984 37.4319 65.2908 37.5589C62.9042 36.6411 60.3219 36.1432 57.6124 36.1432C51.7045 36.1432 46.354 38.5352 42.4806 42.4014C38.6072 46.2676 36.2107 51.6081 36.2107 57.505C36.2107 63.402 38.6072 68.7424 42.4806 72.6086C46.354 76.4748 51.7045 78.8668 57.6124 78.8668C63.5204 78.8668 68.8708 76.4748 72.7442 72.6086C76.6177 68.7424 79.0141 63.402 79.0141 57.505C79.0141 54.6053 78.437 51.8521 77.3904 49.3332C77.5665 49.177 77.7327 49.0208 77.899 48.8451L81.3421 45.2229C83.2592 48.9037 84.345 53.0823 84.345 57.505C84.345 64.8664 81.3519 71.5347 76.5199 76.3577C71.6879 81.1807 65.0071 84.1682 57.632 84.1682C50.2568 84.1682 43.5761 81.1807 38.7441 76.3577C33.9121 71.5347 30.919 64.8664 30.919 57.505C30.919 50.1436 33.9121 43.4753 38.7441 38.6523C43.5566 33.8196 50.2275 30.8321 57.6124 30.8321Z" fill="white"/>
</svg>
