<svg width="51" height="48" viewBox="0 0 51 48" fill="none" xmlns="http://www.w3.org/2000/svg">
<path d="M24.0448 0C29.2212 0 34.0179 1.63396 37.941 4.4129L36.4142 6.02241C32.8953 3.60611 28.6334 2.19219 24.0448 2.19219C18.0112 2.19219 12.549 4.63294 8.59735 8.57725C4.64159 12.5256 2.19629 17.9776 2.19629 24C2.19629 30.0224 4.64159 35.4744 8.59327 39.4187C12.545 43.363 18.0071 45.8037 24.0407 45.8037C30.0744 45.8037 35.5365 43.363 39.4882 39.4187C42.1662 36.7457 44.1502 33.38 45.1545 29.619C44.1584 29.0445 43.4889 27.9688 43.4889 26.7341C43.4889 25.2224 44.5013 23.943 45.8852 23.5396C45.7872 18.8007 44.1747 14.4367 41.509 10.9039L43.0398 9.29032C46.1342 13.2672 48.0039 18.2424 48.0815 23.6496C49.3021 24.1467 50.1594 25.3406 50.1594 26.7341C50.1594 28.4048 48.9265 29.7902 47.3181 30.0265C46.2281 34.2316 44.0237 37.9925 41.0395 40.9711C36.6878 45.3148 30.6786 48 24.0367 48C17.3988 48 11.3856 45.3148 7.03383 40.9711C2.69024 36.6275 0 30.6255 0 24C0 17.3745 2.69025 11.3725 7.04199 7.02886C11.3937 2.68523 17.4029 0 24.0448 0ZM24.0448 19.8031C24.7674 19.8031 25.4491 19.9864 26.0452 20.3083C26.0737 20.2676 26.1064 20.2309 26.1391 20.1983L39.9128 5.73718C40.3292 5.30119 41.0232 5.28081 41.46 5.70051C41.8968 6.11613 41.9172 6.80883 41.4967 7.24482L27.7271 21.7019C27.6944 21.7345 27.6618 21.7671 27.625 21.7956C28.021 22.4353 28.2496 23.1891 28.2496 23.9959C28.2496 26.3144 26.3677 28.1929 24.0448 28.1929C21.722 28.1929 19.84 26.3144 19.84 23.9959C19.84 21.6815 21.722 19.8031 24.0448 19.8031ZM25.5022 37.0472C26.7351 37.0472 27.8128 37.7155 28.3925 38.7097C30.8868 37.9762 33.1157 36.6275 34.9079 34.8428C37.6879 32.0679 39.4066 28.2336 39.4066 24C39.4066 20.9399 38.5085 18.0876 36.9613 15.6958L38.5289 14.0455C40.4843 16.8733 41.6314 20.3042 41.6314 24C41.6314 28.8448 39.6638 33.2333 36.4796 36.4115C34.3772 38.51 31.7441 40.0788 28.8007 40.9019C28.5476 42.491 27.1719 43.7093 25.5063 43.7093C24.0448 43.7093 22.8079 42.7722 22.3548 41.4723C18.1745 41.073 14.4228 39.2149 11.6142 36.4115C8.43406 33.2374 6.4623 28.8489 6.4623 24C6.4623 20.019 7.78906 16.3518 10.0262 13.4058C9.83021 12.982 9.72407 12.5134 9.72407 12.0163C9.72407 10.1786 11.2182 8.68727 13.0593 8.68727C13.6594 8.68727 14.2269 8.84618 14.7127 9.12326C17.4192 7.42818 20.6157 6.45025 24.0448 6.45025C27.4985 6.45025 30.7153 7.44448 33.4342 9.15993L31.8706 10.8061C29.5805 9.44924 26.9025 8.67097 24.0448 8.67097C21.1709 8.67097 18.4766 9.46146 16.1741 10.8306C16.317 11.2014 16.3946 11.6007 16.3946 12.0204C16.3946 13.8581 14.9004 15.3494 13.0593 15.3494C12.5368 15.3494 12.0387 15.2272 11.5979 15.0153C9.7649 17.5416 8.68308 20.6465 8.68308 24.0041C8.68308 28.2377 10.4017 32.072 13.1818 34.8469C15.5904 37.2509 18.795 38.8604 22.367 39.2475C22.8324 37.9599 24.0612 37.0472 25.5022 37.0472ZM24.0448 12.8679C25.7717 12.8679 27.4087 13.2591 28.8701 13.9599L27.3882 15.5205C27.3393 15.5694 27.2944 15.6224 27.2494 15.6754C26.2534 15.2924 25.1756 15.0845 24.0448 15.0845C21.5791 15.0845 19.3461 16.0829 17.7295 17.6964C16.1129 19.31 15.1127 21.5389 15.1127 24C15.1127 26.4611 16.1129 28.69 17.7295 30.3036C19.3461 31.9171 21.5791 32.9155 24.0448 32.9155C26.5105 32.9155 28.7436 31.9171 30.3602 30.3036C31.9768 28.69 32.9769 26.4611 32.9769 24C32.9769 22.7898 32.7361 21.6407 32.2993 20.5895C32.3728 20.5243 32.4422 20.4591 32.5116 20.3857L33.9485 18.874C34.7487 20.4102 35.2018 22.1542 35.2018 24C35.2018 27.0723 33.9526 29.8553 31.9359 31.8682C29.9193 33.8812 27.1311 35.128 24.053 35.128C20.9749 35.128 18.1867 33.8812 16.17 31.8682C14.1534 29.8553 12.9042 27.0723 12.9042 24C12.9042 20.9277 14.1534 18.1447 16.17 16.1317C18.1785 14.1148 20.9627 12.8679 24.0448 12.8679Z" fill="black"/>
</svg>
