<svg width="96" height="96" viewBox="0 0 96 96" fill="none" xmlns="http://www.w3.org/2000/svg">
<path d="M13.9485 40.8787C10.7476 36.8761 8.81982 31.8183 8.81982 26.2875C8.81982 13.443 19.2589 3 32.0986 3C44.9384 3 55.3775 13.443 55.3775 26.2875C55.3775 39.1321 44.9384 49.5751 32.0986 49.5751" stroke="#101010" stroke-width="5" stroke-miterlimit="10" stroke-linecap="round" stroke-linejoin="round"/>
<path d="M40.8282 26.2876H32.0986V11.7329" stroke="#101010" stroke-width="5" stroke-miterlimit="10" stroke-linecap="round" stroke-linejoin="round"/>
<path d="M27.7337 93.2392C30.1443 93.2392 32.0985 91.2843 32.0985 88.8728C32.0985 86.4613 30.1443 84.5063 27.7337 84.5063C25.3231 84.5063 23.3689 86.4613 23.3689 88.8728C23.3689 91.2843 25.3231 93.2392 27.7337 93.2392Z" stroke="#101010" stroke-width="5" stroke-miterlimit="10" stroke-linecap="round" stroke-linejoin="round"/>
<path d="M77.2012 93.2392C79.6118 93.2392 81.566 91.2843 81.566 88.8728C81.566 86.4613 79.6118 84.5063 77.2012 84.5063C74.7906 84.5063 72.8364 86.4613 72.8364 88.8728C72.8364 91.2843 74.7906 93.2392 77.2012 93.2392Z" stroke="#101010" stroke-width="5" stroke-miterlimit="10" stroke-linecap="round" stroke-linejoin="round"/>
<path d="M23.3689 88.8729H14.6393C13.0389 88.8729 11.7295 87.5629 11.7295 85.9619V78.6846" stroke="#101010" stroke-width="5" stroke-miterlimit="10" stroke-linecap="round" stroke-linejoin="round"/>
<path d="M72.8366 88.873H32.0986" stroke="#101010" stroke-width="5" stroke-miterlimit="10" stroke-linecap="round" stroke-linejoin="round"/>
<path d="M93.2053 81.5957V84.5066V85.9621C93.2053 87.5631 91.8959 88.8731 90.2955 88.8731H81.5659" stroke="#101010" stroke-width="5" stroke-miterlimit="10" stroke-linecap="round" stroke-linejoin="round"/>
<path d="M11.7295 61.2188C11.7295 71.407 11.7295 78.6844 11.7295 78.6844" stroke="#101010" stroke-width="5" stroke-miterlimit="10" stroke-linecap="round" stroke-linejoin="round"/>
<path d="M93.2053 81.5956V72.6808C93.2053 70.9706 92.4415 69.2969 91.0957 68.2053L84.4758 62.6744L75.3461 46.7007C73.782 43.9717 70.9086 42.2979 67.7805 42.2979H58.2871" stroke="#101010" stroke-width="5" stroke-miterlimit="10" stroke-linecap="round" stroke-linejoin="round"/>
<path d="M65.5617 62.6743H58.2871V48.1196" stroke="#101010" stroke-width="5" stroke-miterlimit="10" stroke-linecap="round" stroke-linejoin="round"/>
<path d="M77.2013 62.6746C77.2013 56.8527 71.3816 58.3082 71.3816 58.3082V65.5856" stroke="#101010" stroke-width="5" stroke-miterlimit="10" stroke-linecap="round" stroke-linejoin="round"/>
<path d="M11.7295 77.229H17.5492V83.0509" stroke="#101010" stroke-width="5" stroke-miterlimit="10" stroke-linecap="round" stroke-linejoin="round"/>
<path d="M3 55.397H5.90985" stroke="#101010" stroke-width="5" stroke-miterlimit="10" stroke-linecap="round" stroke-linejoin="round"/>
<path d="M11.7295 55.397H17.5492" stroke="#101010" stroke-width="5" stroke-miterlimit="10" stroke-linecap="round" stroke-linejoin="round"/>
<path d="M26.2789 49.5752H8.81982" stroke="#101010" stroke-width="5" stroke-miterlimit="10" stroke-linecap="round" stroke-linejoin="round"/>
<path d="M92.9144 71.4072H87.3857V77.2291H93.2054" stroke="#101010" stroke-width="5" stroke-miterlimit="10" stroke-linecap="round" stroke-linejoin="round"/>
<path d="M11.7295 83.0508H17.5492" stroke="#101010" stroke-width="5" stroke-miterlimit="10" stroke-linecap="round" stroke-linejoin="round"/>
</svg>
