<svg width="41" height="40" viewBox="0 0 41 40" fill="none" xmlns="http://www.w3.org/2000/svg">
<path d="M20.2586 9.79114C19.9062 9.79114 19.5576 9.80912 19.2142 9.84429C18.8708 9.87947 18.5322 9.93159 18.1993 10C17.8664 10.0684 17.5394 10.1532 17.219 10.2532L16.2785 10.5985L15.3831 11.0309L14.5381 11.545L13.7486 12.1356L13.02 12.7974L12.3576 13.5252L11.7664 14.3139L11.2516 15.1581L10.819 16.0525C10.689 16.3584 10.5733 16.672 10.4732 16.9922C10.373 17.3124 10.2883 17.6392 10.2197 17.9717C10.1512 18.3042 10.0991 18.6425 10.0638 18.9856C10.0285 19.3288 10.0107 19.677 10.0107 20.029C10.0107 20.381 10.0287 20.7291 10.0638 21.0723C10.0986 21.4127 10.1507 21.7512 10.2197 22.0863C10.2883 22.4201 10.373 22.7457 10.4732 23.0659C10.5733 23.386 10.6888 23.6995 10.819 24.0056L11.2516 24.9L11.7664 25.7441L12.3576 26.5328L13.02 27.2607L13.7486 27.9225L14.5381 28.513L15.3831 29.0272L16.2785 29.4596L17.219 29.8049L18.1993 30.058C18.5348 30.1271 18.8735 30.1791 19.2142 30.2139C19.5612 30.2493 19.9098 30.267 20.2586 30.2669C20.611 30.2669 20.9595 30.2489 21.3028 30.2139C21.6435 30.1791 21.9823 30.1271 22.3177 30.058L23.2982 29.8049L24.2387 29.4596L25.134 29.0272L25.9791 28.513L26.7686 27.9225L27.4973 27.2607L28.1597 26.5328L28.7509 25.7441L29.2656 24.9L29.6983 24.0056L30.0441 23.0659C30.1443 22.7457 30.229 22.4188 30.2975 22.0863L30.4535 21.0722C30.4887 20.729 30.5067 20.3808 30.5067 20.0288C30.5067 19.6768 30.4887 19.3287 30.4535 18.9855C30.4187 18.6451 30.3666 18.3067 30.2975 17.9716C30.229 17.6378 30.1443 17.3124 30.0441 16.9921L29.6983 16.0524L29.2656 15.158L28.7509 14.3137L28.1597 13.5251L27.4973 12.7972L26.7686 12.1354L25.9791 11.5449L25.134 11.0308L24.2387 10.5984L23.2982 10.253L22.3177 9.99989L21.3028 9.84416C20.9559 9.80873 20.6073 9.79099 20.2586 9.79102V9.79114ZM20.2586 13.3249C20.4916 13.3249 20.7215 13.3364 20.948 13.3593L21.6155 13.4603L22.2604 13.6246L22.8779 13.8489L23.4649 14.13L24.0169 14.4645L24.533 14.8492L25.0088 15.2808L25.4408 15.7561L25.8259 16.2716L26.1607 16.8244L26.4419 17.4111C26.5263 17.6119 26.6013 17.8177 26.6665 18.0281C26.7317 18.2385 26.7866 18.4535 26.8308 18.6725C26.8751 18.8915 26.9079 19.1144 26.9319 19.3407L26.9663 20.0296C26.9663 20.2624 26.9547 20.4922 26.9319 20.7186C26.909 20.9451 26.8754 21.1679 26.8308 21.3868C26.7863 21.6057 26.7314 21.8207 26.6665 22.0313L26.4419 22.6482L26.1607 23.2349L25.8259 23.7876L25.4408 24.3033L25.0088 24.7785L24.533 25.2101L24.0169 25.5949L23.4649 25.9293L22.8779 26.2105L22.2604 26.4347L21.6155 26.5991L20.948 26.7C20.7188 26.7229 20.4887 26.7344 20.2584 26.7344C20.0281 26.7344 19.798 26.7229 19.5688 26.7L18.9012 26.5991C18.6821 26.5546 18.4669 26.4997 18.2563 26.4347L17.6388 26.2105L17.0517 25.9293L16.4997 25.5949L15.9836 25.2101L15.5079 24.7785L15.0759 24.3033L14.6907 23.7876L14.3559 23.2349L14.0748 22.6482L13.8501 22.0313L13.6858 21.3868L13.5848 20.7186C13.5618 20.4897 13.5503 20.2597 13.5504 20.0296C13.5503 19.7996 13.5618 19.5696 13.5848 19.3407C13.6075 19.1144 13.6412 18.8914 13.6858 18.6725C13.7299 18.4552 13.7848 18.2401 13.8502 18.0282L14.0749 17.4112L14.3561 16.8245L14.6909 16.2718L15.076 15.7562L15.508 15.2809L15.9837 14.8493L16.4998 14.4646L17.0518 14.1302L17.6389 13.849C17.841 13.7642 18.0471 13.6893 18.2565 13.6247L18.9015 13.4604C19.1206 13.416 19.3438 13.3821 19.5691 13.3594C19.7982 13.3364 20.0284 13.3249 20.2587 13.325L20.2586 13.3249Z" fill="url(#paint0_radial_140_1129)"/>
<path d="M30.9224 6.87891C30.841 6.87892 30.7597 6.88303 30.6787 6.89123C30.5978 6.89941 30.5173 6.91167 30.4375 6.92795C30.3578 6.94421 30.2789 6.96447 30.2012 6.98867C30.1234 7.01288 30.0469 7.04098 29.972 7.07288C29.8971 7.10482 29.8238 7.14051 29.7524 7.17982C29.6809 7.21906 29.6115 7.26186 29.5444 7.30807C29.4772 7.35433 29.4124 7.40395 29.3501 7.45673C29.2879 7.50946 29.2284 7.56529 29.1717 7.62401C29.115 7.68276 29.0613 7.74433 29.0107 7.80848C28.9602 7.87265 28.9128 7.93932 28.8689 8.00824C28.8249 8.07711 28.7844 8.14815 28.7475 8.22109C28.7106 8.29408 28.6773 8.36889 28.6478 8.44524C28.6183 8.52157 28.5927 8.59933 28.5709 8.67824C28.5491 8.75715 28.5313 8.8371 28.5175 8.91779C28.5037 8.99847 28.4939 9.07979 28.4881 9.16145C28.484 9.2193 28.4819 9.27728 28.4819 9.33528C28.4819 9.41721 28.486 9.49908 28.4941 9.5806C28.5023 9.66209 28.5144 9.74311 28.5306 9.82337C28.5467 9.90362 28.5669 9.98302 28.5909 10.0612C28.615 10.1395 28.6429 10.2165 28.6746 10.2919C28.7063 10.3674 28.7418 10.4412 28.7808 10.5131C28.8198 10.585 28.8623 10.6549 28.9083 10.7225C28.9542 10.7901 29.0035 10.8553 29.0559 10.9179C29.1083 10.9806 29.1638 11.0406 29.2222 11.0976C29.2805 11.1547 29.3417 11.2088 29.4055 11.2596C29.4692 11.3106 29.5355 11.3583 29.6039 11.4025C29.6724 11.4468 29.7431 11.4876 29.8156 11.5247C29.8881 11.5619 29.9624 11.5954 30.0382 11.6251C30.1141 11.6548 30.1913 11.6806 30.2697 11.7026C30.3481 11.7244 30.4275 11.7423 30.5077 11.7562C30.5879 11.7702 30.6687 11.7801 30.7498 11.7859C30.8073 11.79 30.8649 11.792 30.9225 11.792C31.0039 11.7921 31.0852 11.788 31.1662 11.7798C31.2471 11.7716 31.3276 11.7594 31.4074 11.7431C31.4871 11.7269 31.566 11.7066 31.6437 11.6824C31.7215 11.6582 31.7979 11.6301 31.8729 11.5982C31.9478 11.5663 32.0211 11.5306 32.0925 11.4914C32.1639 11.4521 32.2334 11.4092 32.3005 11.363C32.3677 11.3168 32.4325 11.2672 32.4947 11.2145C32.557 11.1617 32.6165 11.1058 32.6732 11.0471C32.7299 10.9883 32.7836 10.9267 32.8342 10.8626C32.8847 10.7984 32.9321 10.7317 32.976 10.6628C33.02 10.5939 33.0605 10.5228 33.0973 10.4498C33.1343 10.3769 33.1676 10.302 33.1971 10.2257C33.2266 10.1494 33.2522 10.0716 33.274 9.9927C33.2958 9.91379 33.3136 9.83384 33.3274 9.75314C33.3412 9.67247 33.351 9.59114 33.3568 9.50948C33.3609 9.45163 33.3629 9.39366 33.363 9.33566C33.363 9.25377 33.3589 9.17194 33.3508 9.09046C33.3426 9.00898 33.3305 8.92796 33.3143 8.8477C33.2981 8.76744 33.278 8.68805 33.254 8.60982C33.2299 8.53156 33.202 8.45457 33.1703 8.37912C33.1386 8.30365 33.1031 8.22983 33.0641 8.15793C33.0251 8.08604 32.9826 8.01616 32.9366 7.94854C32.8906 7.88093 32.8413 7.81568 32.7889 7.75303C32.7365 7.69037 32.6811 7.63038 32.6227 7.5733C32.5644 7.51625 32.5032 7.46218 32.4394 7.41129C32.3757 7.3604 32.3094 7.31276 32.2409 7.26853C32.1725 7.22426 32.1018 7.18347 32.0292 7.14631C31.9568 7.10914 31.8825 7.07563 31.8066 7.04592C31.7308 7.01625 31.6536 6.99042 31.5752 6.96851C31.4968 6.9466 31.4173 6.92865 31.3372 6.91472C31.257 6.90083 31.1762 6.89097 31.095 6.8852C31.0376 6.88109 30.98 6.87904 30.9224 6.87904V6.87891Z" fill="url(#paint1_radial_140_1129)"/>
<path d="M18.3154 0.000373337C17.2008 -0.00142394 16.2061 0.00319701 15.3126 0.015778L12.9171 0.0799665C12.2074 0.110777 11.5804 0.150956 11.0176 0.202949C10.7362 0.228881 10.4708 0.257895 10.2191 0.289861C9.9797 0.320039 9.74091 0.355181 9.50292 0.39526C9.27634 0.433773 9.06131 0.475365 8.85513 0.520554C8.64896 0.565743 8.45203 0.614528 8.26203 0.666906C8.07629 0.718124 7.892 0.774461 7.70936 0.835851C7.53041 0.896189 7.35581 0.96012 7.1834 1.02842C6.83858 1.16501 6.50223 1.31829 6.15587 1.49006C5.88936 1.62229 5.64313 1.75618 5.40923 1.89791C5.17533 2.03964 4.95375 2.18933 4.73679 2.35237C4.51336 2.52109 4.298 2.70025 4.09144 2.88924C3.87551 3.08592 3.65496 3.30223 3.4258 3.54397C3.13785 3.84604 2.88765 4.1277 2.66555 4.40409C2.55451 4.54223 2.45052 4.67882 2.35257 4.81618C2.2557 4.95156 2.1631 5.08993 2.07489 5.2311C1.98759 5.37103 1.90492 5.51353 1.82584 5.66014C1.74553 5.80927 1.66962 5.96073 1.59823 6.11433C1.45213 6.42809 1.3158 6.76598 1.17972 7.14315C1.07876 7.42198 0.988365 7.70453 0.908713 7.99018C0.827451 8.28211 0.755174 8.58752 0.690729 8.91783C0.626283 9.24815 0.570054 9.60337 0.520629 9.9962C0.467368 10.4268 0.424819 10.8587 0.393022 11.2914C0.357077 11.7672 0.327293 12.2907 0.302901 12.8734L0.245132 14.8109L0.214064 17.1726L0.205078 20.0273L0.231395 24.1787L0.313557 27.3239L0.376847 28.5525L0.455927 29.5705C0.481277 29.8449 0.512995 30.1187 0.551055 30.3916C0.585717 30.634 0.622946 30.8461 0.662999 31.0296C0.744271 31.4029 0.840373 31.7727 0.951078 32.1383C1.05708 32.4883 1.17829 32.8336 1.31439 33.173C1.44815 33.5055 1.5945 33.8262 1.75369 34.1348C1.91288 34.4434 2.0849 34.74 2.26977 35.0249C2.45463 35.3097 2.65233 35.5829 2.86338 35.8444C3.0742 36.1059 3.29843 36.3564 3.53518 36.5947C3.77229 36.8334 4.02237 37.0607 4.28593 37.2766C4.55261 37.495 4.82981 37.7002 5.11653 37.8915C5.38266 38.0695 5.64596 38.2324 5.91119 38.3819C6.17641 38.5315 6.44395 38.6672 6.71894 38.7906C6.99392 38.9139 7.27584 39.025 7.57033 39.1249C7.86483 39.2247 8.17165 39.3136 8.49593 39.3924C8.82021 39.4712 9.16349 39.5404 9.5268 39.6007C9.89011 39.6611 10.2784 39.7128 10.6934 39.7574C11.1083 39.8019 11.5509 39.8388 12.0266 39.8696C12.5022 39.9004 13.0106 39.925 13.5568 39.9448C14.4006 39.9753 15.678 39.9932 17.151 40L21.9196 39.9904L26.4351 39.9271L28.152 39.8788L29.2706 39.8213C29.5106 39.8018 29.7456 39.7787 29.9723 39.7516C30.199 39.7245 30.4226 39.6936 30.6403 39.6584C30.8581 39.6232 31.0709 39.5839 31.2801 39.5403C31.4868 39.4972 31.6924 39.4492 31.8968 39.3961C32.0991 39.3448 32.2986 39.2863 32.496 39.2243C32.6935 39.1623 32.8889 39.0953 33.0831 39.0234C33.2785 38.9511 33.472 38.874 33.6636 38.7922C33.8566 38.7101 34.0493 38.6223 34.2426 38.5291C34.5395 38.386 34.7786 38.2668 34.9885 38.1503C35.1859 38.042 35.3761 37.9209 35.5577 37.7878C35.7369 37.6558 35.9151 37.5056 36.1205 37.3164C36.3259 37.1272 36.5587 36.8992 36.8469 36.6108C37.1002 36.3577 37.3138 36.1376 37.498 35.9375C37.6822 35.7374 37.8374 35.5572 37.9735 35.3837C38.1032 35.219 38.2241 35.0475 38.3355 34.8699C38.4443 34.6966 38.5444 34.5166 38.6465 34.317C38.8 34.0166 38.9366 33.7384 39.0589 33.47C39.1777 33.2113 39.2863 32.948 39.3842 32.6807C39.4808 32.4155 39.5644 32.1458 39.6347 31.8726C39.7071 31.5914 39.7695 31.2946 39.8234 30.969C39.8773 30.6435 39.9229 30.2892 39.9625 29.8935C40.002 29.4978 40.0356 29.0606 40.0652 28.5693L40.1435 26.92L40.2107 24.869L40.2588 22.5838L40.2772 20.1945L40.2344 15.5017L40.177 13.3997L40.0987 11.595L40.0011 10.188C39.9657 9.79645 39.9274 9.48809 39.8868 9.2796C39.842 9.04924 39.7918 8.81994 39.7364 8.59188C39.6825 8.36997 39.6232 8.1494 39.5586 7.93036C39.4956 7.71695 39.4272 7.50519 39.3534 7.29528C39.2805 7.08795 39.2032 6.88498 39.1224 6.68638C39.0415 6.48778 38.9539 6.29381 38.8628 6.10394C38.7716 5.91407 38.6761 5.72882 38.5759 5.54781C38.4756 5.36679 38.3711 5.19027 38.2618 5.01812C38.1526 4.84597 38.0389 4.67818 37.9204 4.51488C37.8025 4.35211 37.6797 4.19306 37.5519 4.03796C37.4248 3.88372 37.2929 3.73353 37.1563 3.58762C37.0199 3.44189 36.8789 3.30051 36.7335 3.16371C36.5881 3.02686 36.4382 2.89438 36.2837 2.76626C36.1285 2.63771 35.9695 2.51403 35.8066 2.39538C35.6421 2.27551 35.4739 2.16069 35.3024 2.05107C35.1285 1.93989 34.9513 1.83389 34.7711 1.73321C34.5878 1.63084 34.4016 1.53374 34.2127 1.44205C33.8992 1.28966 33.6093 1.15448 33.3247 1.03458C33.045 0.915581 32.7597 0.809893 32.47 0.717872C32.1786 0.626082 31.8752 0.547388 31.5414 0.479476C31.2076 0.411565 30.8437 0.35495 30.4317 0.306809C30.0198 0.258667 29.5598 0.21977 29.0337 0.187419C28.5076 0.155068 27.9159 0.129647 27.2403 0.109107L24.9441 0.0577568L22.0381 0.0234803L18.3167 0.000627992L18.3154 0.000373337ZM20.2481 3.531L25.6146 3.56155L27.6391 3.60058C28.1967 3.61624 28.6221 3.6346 28.8716 3.65578C29.1964 3.68313 29.5058 3.7174 29.8017 3.75848C30.0857 3.7977 30.3682 3.84647 30.6489 3.90471C30.9185 3.96119 31.1757 4.02538 31.4218 4.09779C31.6679 4.17019 31.9029 4.25132 32.1285 4.34106C32.3541 4.43079 32.5697 4.52952 32.7773 4.63761C32.9832 4.74489 33.1833 4.86295 33.3768 4.99129C33.5694 5.11902 33.755 5.25665 33.9353 5.40492C34.1155 5.5532 34.2902 5.71213 34.4609 5.8821C34.641 6.06144 34.8071 6.24412 34.9602 6.43258C35.1128 6.61987 35.254 6.81617 35.383 7.02042C35.5135 7.22758 35.631 7.44259 35.735 7.66423C35.8413 7.89017 35.9368 8.12896 36.0226 8.38276C36.1083 8.63656 36.1847 8.90628 36.2524 9.19449C36.3232 9.50004 36.3826 9.80815 36.4303 10.1182C36.4816 10.4468 36.5255 10.7973 36.5628 11.1725C36.6 11.5478 36.6308 11.9479 36.6562 12.3761C36.6765 12.7195 36.6942 13.1726 36.7092 13.7078L36.7469 15.5327L36.7756 20.0028L36.7429 24.4687L36.7036 26.2883L36.6496 27.6117C36.6121 28.2314 36.5725 28.7524 36.5253 29.2058C36.5015 29.4325 36.4759 29.6423 36.4474 29.8391C36.4207 30.025 36.389 30.2102 36.3525 30.3944C36.3191 30.5625 36.2804 30.7295 36.2363 30.8951C36.1941 31.0531 36.1466 31.2097 36.0939 31.3646C36.0409 31.5202 35.9831 31.6741 35.9208 31.8262C35.8549 31.9868 35.7853 32.1459 35.7121 32.3034C35.6471 32.444 35.5786 32.5807 35.5062 32.7138C35.4346 32.8456 35.3586 32.9749 35.2782 33.1015C35.1986 33.2269 35.1152 33.3488 35.0279 33.4668C34.9411 33.5843 34.85 33.6988 34.755 33.8098C34.6602 33.9203 34.5614 34.0274 34.4588 34.1307C34.3561 34.2341 34.2495 34.3338 34.1391 34.4301C34.0287 34.5264 33.9142 34.6188 33.7957 34.7079C33.6772 34.797 33.5546 34.8825 33.4279 34.9644C33.3012 35.0463 33.1705 35.1249 33.0356 35.1998C32.9007 35.2748 32.7615 35.3465 32.6184 35.4146C32.4728 35.4838 32.3251 35.5486 32.1756 35.609C32.0211 35.6713 31.8648 35.7293 31.707 35.7829C31.3861 35.8923 31.0476 35.9883 30.6912 36.0711C30.3198 36.1569 29.9449 36.2271 29.5676 36.2814C29.4226 36.3026 29.0892 36.3225 28.6116 36.341L26.7917 36.3916L21.6323 36.4586L16.2319 36.4671L14.1111 36.4445L12.734 36.4016L11.7186 36.3302C11.4033 36.3036 11.1101 36.2741 10.8353 36.2406C10.5606 36.2071 10.3048 36.1697 10.0641 36.1276C9.83596 36.0882 9.60924 36.0411 9.3843 35.9864C9.1792 35.9365 8.9762 35.8784 8.77579 35.8121C8.58259 35.7479 8.39785 35.6773 8.21812 35.5996C8.0384 35.5219 7.8638 35.4368 7.69088 35.3439C7.51795 35.2509 7.34683 35.15 7.17378 35.04C7.04322 34.9571 6.91702 34.8731 6.79558 34.7842C6.67413 34.6952 6.55679 34.6065 6.44382 34.5135C6.33085 34.4206 6.22237 34.3248 6.11774 34.2262C6.01381 34.1281 5.91344 34.0263 5.81683 33.921C5.72055 33.8159 5.6285 33.7078 5.54018 33.5959C5.45151 33.4835 5.36702 33.3679 5.28689 33.2493C5.20556 33.1289 5.12862 33.0055 5.05619 32.8796C4.98302 32.7525 4.91344 32.621 4.84732 32.4854C4.7801 32.3473 4.71738 32.207 4.65925 32.0647C4.6002 31.9199 4.54423 31.7705 4.49159 31.6162C4.38632 31.3075 4.29389 30.9788 4.21353 30.6283C4.13316 30.2779 4.06461 29.9056 4.00658 29.5089C3.94856 29.1122 3.90183 28.6916 3.8646 28.2446C3.83712 27.9153 3.8153 27.4025 3.79861 26.7555L3.76369 24.4543L3.77653 18.5881L3.87756 12.9826L3.95459 11.0077L3.99824 10.3549C4.01339 10.1806 4.02905 10.0514 4.0451 9.97386C4.09799 9.71878 4.15126 9.48141 4.20634 9.25919C4.25778 9.04955 4.31502 8.84137 4.37798 8.63489C4.4378 8.44001 4.50083 8.25746 4.56823 8.08454C4.63322 7.91702 4.70566 7.75249 4.78532 7.59144C4.86311 7.43482 4.94669 7.28488 5.03745 7.13891C5.12821 6.99295 5.22617 6.85135 5.33298 6.71052C5.43979 6.56969 5.55481 6.43065 5.67998 6.2897C5.80515 6.14874 5.94033 6.00637 6.08693 5.85963C6.2578 5.6878 6.43571 5.52312 6.62021 5.36602C6.79443 5.21781 6.9761 5.07859 7.16453 4.94893C7.34978 4.82055 7.53978 4.70629 7.73761 4.60128C7.93544 4.49627 8.1411 4.4014 8.35741 4.31603C8.57373 4.23066 8.80096 4.15427 9.04166 4.08495C9.29454 4.01401 9.55023 3.9535 9.80807 3.90355C10.0792 3.8504 10.3672 3.80406 10.6746 3.76362C10.9821 3.72318 11.3092 3.68826 11.6589 3.65796C11.9028 3.63691 12.3231 3.61817 12.8765 3.60238L14.8908 3.56258L20.249 3.52984L20.2481 3.531Z" fill="url(#paint2_radial_140_1129)"/>
<defs>
<radialGradient id="paint0_radial_140_1129" cx="0" cy="0" r="1" gradientUnits="userSpaceOnUse" gradientTransform="translate(6.5891 42.9158) rotate(-9.53101) scale(84.6919 51.4075)">
<stop stop-color="#FED576"/>
<stop offset="0.263" stop-color="#F47133"/>
<stop offset="0.609" stop-color="#BC3081"/>
<stop offset="1" stop-color="#4C63D2"/>
</radialGradient>
<radialGradient id="paint1_radial_140_1129" cx="0" cy="0" r="1" gradientUnits="userSpaceOnUse" gradientTransform="translate(6.58939 42.9159) rotate(-9.53101) scale(84.6919 51.4075)">
<stop stop-color="#FED576"/>
<stop offset="0.263" stop-color="#F47133"/>
<stop offset="0.609" stop-color="#BC3081"/>
<stop offset="1" stop-color="#4C63D2"/>
</radialGradient>
<radialGradient id="paint2_radial_140_1129" cx="0" cy="0" r="1" gradientUnits="userSpaceOnUse" gradientTransform="translate(6.58927 42.9158) rotate(-9.53101) scale(84.6919 51.4075)">
<stop stop-color="#FED576"/>
<stop offset="0.263" stop-color="#F47133"/>
<stop offset="0.609" stop-color="#BC3081"/>
<stop offset="1" stop-color="#4C63D2"/>
</radialGradient>
</defs>
</svg>
