<svg width="40" height="60" viewBox="0 0 40 60" fill="none" xmlns="http://www.w3.org/2000/svg">
<rect width="40" height="60" rx="10" fill="#76B72A"/>
<rect x="13" y="6" width="15" height="3" rx="1.5" fill="white"/>
<rect x="17" y="48" width="7" height="7" rx="3.5" fill="white"/>
<path d="M11.5858 20.5858C11.2107 20.9609 11 21.4696 11 22V23C11 31.284 17.716 38 26 38H27C27.5304 38 28.0391 37.7893 28.4142 37.4142C28.7893 37.0391 29 36.5304 29 36V32.721C29.0001 32.511 28.934 32.3064 28.8112 32.136C28.6885 31.9657 28.5152 31.8383 28.316 31.772L23.823 30.274C23.5947 30.1981 23.3466 30.2071 23.1244 30.2993C22.9021 30.3915 22.7205 30.5607 22.613 30.776L21.483 33.033C19.0345 31.9267 17.0733 29.9655 15.967 27.517L18.224 26.387C18.4393 26.2795 18.6085 26.0979 18.7007 25.8756C18.7929 25.6534 18.8019 25.4053 18.726 25.177L17.228 20.684C17.1617 20.485 17.0345 20.3118 16.8644 20.189C16.6942 20.0663 16.4898 20.0002 16.28 20H13C12.4696 20 11.9609 20.2107 11.5858 20.5858Z" fill="#F2F2F2" stroke="#F2F2F2" stroke-width="2" stroke-linecap="round" stroke-linejoin="round"/>
</svg>
