<svg width="115" height="109" viewBox="0 0 115 109" fill="none" xmlns="http://www.w3.org/2000/svg">
<path d="M68.738 99.6084C67.7949 99.8341 66.8333 100.034 65.8789 100.203C63.384 100.649 61.7346 102.952 62.1961 105.349C62.424 106.529 63.1217 107.511 64.069 108.152C65.0453 108.812 66.2878 109.11 67.5539 108.884C68.6905 108.681 69.836 108.443 70.96 108.174C73.4237 107.585 74.9246 105.189 74.31 102.825C73.6968 100.459 71.2032 99.0193 68.738 99.6084Z" fill="white"/>
<path d="M102.739 40.4413C103.061 41.3731 103.676 42.1338 104.453 42.6595C105.604 43.4381 107.111 43.7001 108.549 43.2436C110.96 42.4751 112.266 39.9794 111.469 37.6662C111.105 36.6117 110.702 35.5538 110.273 34.5238C109.329 32.2604 106.655 31.1584 104.296 32.0638C101.94 32.9687 100.791 35.5368 101.735 37.801C102.096 38.6667 102.434 39.5553 102.739 40.4413Z" fill="white"/>
<path d="M83.6788 93.3034C82.8677 93.8174 82.0306 94.3149 81.1873 94.7811C78.9871 95.9994 78.2336 98.6992 79.5022 100.81C79.8466 101.385 80.3054 101.854 80.8337 102.213C82.2521 103.171 84.1783 103.314 85.7821 102.427C86.7846 101.872 87.7816 101.282 88.7475 100.669C90.8653 99.3254 91.4483 96.5869 90.0484 94.5528C88.6487 92.5181 85.7973 91.9592 83.6788 93.3034Z" fill="white"/>
<path d="M114.328 52.7729C114.228 50.3367 112.091 48.4405 109.552 48.5357C107.017 48.6317 105.04 50.6844 105.14 53.1196C105.178 54.0507 105.188 54.9958 105.165 55.9259C105.13 57.4537 105.908 58.8155 107.118 59.634C107.838 60.1212 108.713 60.416 109.661 60.4367C112.199 60.4908 114.302 58.5585 114.358 56.1211C114.383 55.0097 114.374 53.8836 114.328 52.7729Z" fill="white"/>
<path d="M101.988 81.6921C99.9534 80.2264 97.0744 80.6243 95.5504 82.5743C94.9667 83.3211 94.3521 84.0587 93.7227 84.7689C92.078 86.624 92.3103 89.4104 94.2427 90.9906C94.3528 91.0803 94.4642 91.1626 94.5798 91.2401C96.5009 92.5403 99.1708 92.2415 100.724 90.4916C101.476 89.6443 102.208 88.7633 102.906 87.8713C104.43 85.9214 104.018 83.1557 101.988 81.6921Z" fill="white"/>
<path d="M108.748 65.7365C106.325 65.0072 103.744 66.302 102.985 68.628C102.695 69.5166 102.373 70.4095 102.025 71.2839C101.262 73.2089 101.993 75.327 103.67 76.462C103.977 76.6695 104.316 76.8453 104.684 76.9789C107.056 77.8479 109.713 76.7053 110.617 74.427C111.03 73.3874 111.413 72.325 111.759 71.2686C112.518 68.9421 111.17 66.4658 108.748 65.7365Z" fill="white"/>
<path d="M48.6788 100.241C44.5681 99.5326 40.6249 98.326 36.8857 96.6432C36.8414 96.621 36.8018 96.5958 36.7554 96.5755C35.8742 96.1773 34.9946 95.7508 34.1419 95.3052C34.139 95.3019 34.1336 95.2998 34.1289 95.2979C32.5645 94.4709 31.0378 93.5558 29.5545 92.5535C7.92625 77.9273 2.72594 49.1357 17.9625 28.3728C21.2756 23.8596 25.285 20.0944 29.7549 17.1101C29.81 17.0733 29.8651 17.0367 29.9196 16.9997C45.6708 6.58079 67.0584 5.87863 83.7836 16.585L80.1914 21.5676C79.1928 22.9544 79.8072 23.9651 81.5554 23.814L97.1591 22.473C98.9096 22.3219 99.9564 20.8683 99.4856 19.2454L95.2955 4.75234C94.8264 3.12758 93.6254 2.9331 92.6258 4.31972L89.0252 9.31414C76.7512 1.4044 62.0297 -1.6117 47.4178 0.820722C45.9461 1.06524 44.4951 1.36451 43.064 1.71288C43.0529 1.71477 43.0441 1.71595 43.0352 1.71783C42.9799 1.73082 42.9239 1.74804 42.87 1.76244C30.27 4.8687 19.2766 11.9236 11.4321 21.9894C11.366 22.0647 11.2979 22.1383 11.2355 22.2202C10.9746 22.5575 10.7157 22.9025 10.4622 23.2476C10.0477 23.8131 9.63912 24.3928 9.24821 24.9724C9.19928 25.0423 9.16191 25.1133 9.11914 25.1839C2.64579 34.8137 -0.476559 45.9468 0.0589118 57.281C0.0601411 57.3183 0.0579284 57.3558 0.0589118 57.394C0.110787 58.5012 0.202245 59.6237 0.326401 60.7288C0.333039 60.8 0.349512 60.8675 0.36205 60.9388C0.490386 62.05 0.651421 63.1638 0.853267 64.2773C2.90468 75.6388 8.48754 85.8625 16.8532 93.8176C16.8726 93.8362 16.8928 93.8565 16.9125 93.8759C16.9194 93.8832 16.927 93.887 16.9336 93.8938C19.1812 96.022 21.626 97.9904 24.2584 99.7702C31.1472 104.43 38.8181 107.511 47.0562 108.93C49.5558 109.361 51.9435 107.764 52.392 105.365C52.8401 102.965 51.1777 100.671 48.6788 100.241Z" fill="white"/>
<path d="M54.3646 19.2373C52.3085 19.2373 50.6431 20.8375 50.6431 22.8085V58.3878L84.539 75.2092C85.0845 75.4804 85.6687 75.6081 86.2435 75.6081C87.5898 75.6081 88.8901 74.9043 89.5512 73.6763C90.4941 71.9236 89.7806 69.7704 87.9549 68.8652L58.0819 54.0389V22.8085C58.0816 20.8375 56.4182 19.2373 54.3646 19.2373Z" fill="white"/>
</svg>
