<svg width="143" height="118" viewBox="0 0 143 118" fill="none" xmlns="http://www.w3.org/2000/svg">
<path d="M22.5024 31C27.4175 22.4869 34.4868 15.4176 42.9999 10.5026C51.5129 5.58755 61.1698 3 70.9999 3C80.8299 3 90.4868 5.58755 98.9999 10.5026C107.513 15.4176 114.582 22.4869 119.497 31" stroke="white" stroke-width="6"/>
<path d="M105.641 39C102.13 32.9192 97.0807 27.8697 90.9999 24.359C84.9191 20.8482 78.0214 19 70.9999 19C63.9784 19 57.0807 20.8483 50.9999 24.359C44.9191 27.8697 39.8696 32.9192 36.3589 39" stroke="white" stroke-width="6"/>
<path d="M22.5024 87C27.4175 95.5131 34.4868 102.582 42.9999 107.497C51.5129 112.412 61.1698 115 70.9999 115C80.8299 115 90.4868 112.412 98.9999 107.497C107.513 102.582 114.582 95.5131 119.497 87" stroke="white" stroke-width="6"/>
<path d="M105.641 79C102.13 85.0808 97.0807 90.1303 90.9999 93.641C84.9191 97.1518 78.0214 99 70.9999 99C63.9784 99 57.0807 97.1517 50.9999 93.641C44.9191 90.1303 39.8696 85.0808 36.3589 79" stroke="white" stroke-width="6"/>
<path d="M8 4L71.5 44L135 4V115L71.5 75L8 115V4Z" fill="#90AD1D"/>
<path d="M42 61H3M3 61L13 51M3 61L13 71" stroke="white" stroke-width="4" stroke-linecap="round"/>
<path d="M45.3873 75.2501L11.6123 94.7501M11.6123 94.7501L15.2726 81.0898M11.6123 94.7501L25.2726 98.4104" stroke="white" stroke-width="4" stroke-linecap="round"/>
<path d="M45.3873 44.7509L11.6123 25.2509M11.6123 25.2509L15.2726 38.9111M11.6123 25.2509L25.2726 21.5906" stroke="white" stroke-width="4" stroke-linecap="round"/>
<path d="M100.359 61H139.359M139.359 61L129.359 51M139.359 61L129.359 71" stroke="white" stroke-width="4" stroke-linecap="round"/>
<path d="M96.9721 75.2491L130.747 94.7491M130.747 94.7491L127.087 81.0889M130.747 94.7491L117.087 98.4094" stroke="white" stroke-width="4" stroke-linecap="round"/>
<path d="M96.9721 44.7509L130.747 25.2509M130.747 25.2509L127.087 38.9111M130.747 25.2509L117.087 21.5906" stroke="white" stroke-width="4" stroke-linecap="round"/>
<path d="M59 64.156V59.008H73.82V64.156H59ZM59 70.968V67.432H76.524V70.968H59ZM63.108 77V40.08H76.264C78.032 40.08 79.6093 40.4267 80.996 41.12C82.4173 41.8133 83.6133 42.732 84.584 43.876C85.5893 45.02 86.352 46.3027 86.872 47.724C87.4267 49.1453 87.704 50.6013 87.704 52.092C87.704 54.1373 87.2533 56.096 86.352 57.968C85.4853 59.8053 84.22 61.296 82.556 62.44C80.9267 63.584 78.916 64.156 76.524 64.156H68.984V77H63.108ZM68.984 59.008H76.212C77.564 59.008 78.6387 58.7133 79.436 58.124C80.268 57.5 80.8573 56.668 81.204 55.628C81.5853 54.588 81.776 53.4093 81.776 52.092C81.776 50.74 81.5507 49.544 81.1 48.504C80.684 47.464 80.0253 46.6667 79.124 46.112C78.2573 45.5227 77.1653 45.228 75.848 45.228H68.984V59.008Z" fill="white"/>
</svg>
