<svg width="23" height="23" viewBox="0 0 23 23" fill="none" xmlns="http://www.w3.org/2000/svg">
<path d="M11.6343 0.157985C11.8318 0 11.9503 0 12.5822 0C12.8982 0 13.3721 0.0395074 13.6486 0.0790149C14.952 0.237 15.7814 0.434492 16.9268 0.987418C18.0722 1.54039 18.7832 2.05381 19.7706 2.96225C20.679 3.83119 21.153 4.50264 21.7059 5.56903C22.4563 7.0304 22.8513 8.72878 22.9303 10.6246C22.9698 11.2565 22.9303 11.4145 22.7724 11.612C22.4959 11.9675 21.864 11.928 21.627 11.4935C21.5479 11.3751 21.5479 11.2565 21.5085 10.7431C21.469 9.95319 21.4295 9.43973 21.311 8.80779C20.8765 6.39851 19.6916 4.46318 17.7958 3.08078C16.216 1.93537 14.8335 1.50093 12.7007 1.34294C11.9503 1.34294 11.8318 1.34294 11.6738 1.18496C11.3578 0.987418 11.3578 0.434448 11.6343 0.157985Z" fill="white"/>
<path d="M15.5445 5.09515C14.7941 4.6607 13.6487 4.30522 12.6218 4.22621C12.2663 4.1867 12.0293 4.10773 11.9108 3.94974C11.6738 3.75225 11.6738 3.39677 11.8318 3.15982C12.0293 2.84385 12.3452 2.80434 13.2536 2.96233C15.5445 3.2783 17.3218 4.34473 18.5067 6.04306C19.1782 6.99097 19.5731 8.13637 19.6916 9.32128C19.7311 9.75573 19.7311 10.5457 19.6916 10.7037C19.6521 10.8222 19.4941 11.0197 19.3361 11.0592C19.1782 11.1382 18.8622 11.1382 18.7042 11.0197C18.4277 10.8617 18.3092 10.6642 18.3092 10.0322C18.3092 9.08433 18.0722 8.0574 17.5983 7.26748C17.1243 6.35903 16.4134 5.60861 15.5445 5.09515Z" fill="white"/>
<path d="M16.5319 10.3086C16.2949 10.506 15.8999 10.506 15.6629 10.3086C15.4655 10.1901 15.4259 10.0321 15.3865 9.6371C15.347 9.12364 15.2285 8.76816 15.11 8.45219C14.794 7.74124 14.2016 7.38581 13.2142 7.26728C12.7402 7.22778 12.6218 7.14881 12.4638 6.99082C12.1873 6.67485 12.3058 6.16139 12.6613 5.9639C12.8193 5.88488 12.8588 5.88488 13.1747 5.92439C13.3722 5.92439 13.6487 5.9639 13.8067 6.0034C14.5571 6.16139 15.1101 6.43785 15.6235 6.87234C16.2555 7.46478 16.6109 8.13622 16.7294 9.16315C16.8083 9.8346 16.7688 10.1111 16.5319 10.3086Z" fill="white"/>
<path d="M22.8907 18.7219C22.8907 18.3664 22.7723 18.0899 22.5353 17.8134C22.2983 17.537 20.6789 16.2336 19.889 15.7201C19.2965 15.3251 18.3881 14.7722 17.9932 14.5747C17.4402 14.2983 16.8873 14.2588 16.3738 14.4167C16.2553 14.4563 16.1763 14.4958 16.0973 14.5352C15.8603 14.6537 15.6629 14.8907 15.1889 15.4436C14.873 15.8386 14.5965 16.194 14.557 16.194C14.557 16.194 14.5175 16.194 14.5175 16.2336C14.478 16.2731 14.3595 16.3126 14.2805 16.352C13.767 16.589 13.0956 16.431 11.9897 15.9176C11.1207 15.4831 10.3703 14.9697 9.50138 14.1797C8.75096 13.5083 8.0005 12.6789 7.60556 12.0074C7.05259 11.1385 6.65765 10.0326 6.65765 9.40064C6.65765 9.12418 6.77613 8.7687 6.89465 8.57121L6.93416 8.5317C6.93416 8.5317 6.93416 8.5317 6.97366 8.4922C7.01317 8.45269 7.05268 8.41318 7.09214 8.41318C7.25013 8.2947 7.44762 8.09721 7.64511 7.93923C8.55351 7.22827 8.75101 6.99132 8.86953 6.59633C8.98801 6.20135 8.86953 5.68793 8.47454 4.97697C7.7635 3.67363 5.78871 1.18533 5.07775 0.711377C4.95928 0.632362 4.76178 0.553392 4.64331 0.474377C4.32734 0.395363 3.89289 0.3559 3.65589 0.395362C3.30041 0.474377 2.86596 0.75084 1.87855 1.46175C1.28611 1.8962 0.496142 2.64666 0.298695 2.96263C-0.135753 3.71305 -0.0962903 4.30553 0.417172 5.7669C0.891127 7.07029 1.52307 8.37367 2.23402 9.63756L2.27353 9.67706C2.43152 9.91406 2.5895 10.1905 2.74749 10.4275C2.74749 10.467 2.78699 10.467 2.78699 10.5065C2.94498 10.7435 3.10296 11.02 3.26095 11.2569C3.33996 11.3359 3.37943 11.4544 3.45844 11.5334C3.57692 11.7309 3.69544 11.8889 3.85343 12.0863C4.05092 12.3628 4.24841 12.6393 4.48537 12.9158C6.73666 15.8385 9.34344 18.2083 12.4242 20.1437C12.4637 20.1832 12.5032 20.1832 12.5426 20.2227C13.0166 20.4991 13.4906 20.7757 13.9645 21.0521C14.0435 21.0916 14.083 21.1311 14.162 21.1706C14.636 21.4471 15.1494 21.6841 15.6629 21.921C15.7024 21.9605 15.7814 21.9605 15.8209 22C16.3343 22.237 16.8873 22.474 17.4402 22.711C18.1117 22.9874 18.3486 23.027 18.8621 22.9874C19.0991 22.9874 19.3361 22.9479 19.5335 22.869C19.8495 22.79 20.126 22.632 20.4815 22.395C20.5605 22.3555 20.5999 22.316 20.6789 22.2765C20.758 22.237 20.8369 22.1581 20.9159 22.079C21.3504 21.7236 21.8243 21.1706 22.2193 20.6572C22.4958 20.3017 22.6933 19.9462 22.8118 19.6698C22.8512 19.2748 22.8907 18.9983 22.8907 18.7219Z" fill="white"/>
</svg>
