<svg width="28" height="17" viewBox="0 0 28 17" fill="none" xmlns="http://www.w3.org/2000/svg">
<path fill-rule="evenodd" clip-rule="evenodd" d="M26.7572 1.78014C26.9425 1.16213 26.7572 0.708008 25.8752 0.708008H22.9585C22.2169 0.708008 21.875 1.1003 21.6896 1.53288C21.6896 1.53288 20.2063 5.1482 18.1052 7.49659C17.4254 8.17638 17.1163 8.39267 16.7455 8.39267C16.5602 8.39267 16.2918 8.17637 16.2918 7.55842V1.78014C16.2918 1.03853 16.0766 0.708008 15.4585 0.708008H10.8752C10.4117 0.708008 10.133 1.05221 10.133 1.37842C10.133 2.08145 11.1836 2.24358 11.2918 4.22121V8.51632C11.2918 9.45801 11.1218 9.62874 10.751 9.62874C9.76221 9.62874 7.35703 5.99727 5.93054 1.84191C5.65098 1.03426 5.37059 0.708008 4.62517 0.708008H1.7085C0.875171 0.708008 0.708496 1.1003 0.708496 1.53288C0.708496 2.30541 1.69731 6.13702 5.31258 11.2046C7.72274 14.6654 11.1185 16.5413 14.2085 16.5413C16.0625 16.5413 16.2918 16.1247 16.2918 15.407V12.7913C16.2918 11.958 16.4675 11.7917 17.0546 11.7917C17.4872 11.7917 18.2288 12.008 19.9592 13.6766C21.9368 15.6542 22.2628 16.5413 23.3752 16.5413H26.2918C27.1252 16.5413 27.5418 16.1247 27.3015 15.3024C27.0384 14.4829 26.0942 13.2939 24.8414 11.8844C24.1616 11.081 23.1419 10.2158 22.8329 9.78315C22.4003 9.22702 22.5239 8.97976 22.8329 8.48541C22.8329 8.48541 26.3864 3.4796 26.7572 1.78014Z" fill="white"/>
</svg>
