<svg width="25" height="25" viewBox="0 0 25 25" fill="none" xmlns="http://www.w3.org/2000/svg">
<path d="M20.8305 3.56016C18.5391 1.26328 15.4875 0 12.2445 0C5.55078 0 0.103906 5.44688 0.103906 12.1406C0.103906 14.2789 0.661719 16.368 1.72266 18.2109L0 24.5L6.43672 22.8102C8.20859 23.7781 10.2047 24.2867 12.2391 24.2867H12.2445C18.9328 24.2867 24.5 18.8398 24.5 12.1461C24.5 8.90313 23.1219 5.85703 20.8305 3.56016ZM12.2445 22.2414C10.4289 22.2414 8.65156 21.7547 7.10391 20.8359L6.7375 20.6172L2.92031 21.618L3.9375 17.8938L3.69687 17.5109C2.68516 15.9031 2.15469 14.0492 2.15469 12.1406C2.15469 6.57891 6.68281 2.05078 12.25 2.05078C14.9461 2.05078 17.4781 3.10078 19.3813 5.00938C21.2844 6.91797 22.4547 9.45 22.4492 12.1461C22.4492 17.7133 17.8062 22.2414 12.2445 22.2414ZM17.7789 14.6836C17.4781 14.5305 15.9852 13.7977 15.7063 13.6992C15.4273 13.5953 15.225 13.5461 15.0227 13.8523C14.8203 14.1586 14.2406 14.8367 14.0602 15.0445C13.8852 15.2469 13.7047 15.2742 13.4039 15.1211C11.6211 14.2297 10.4508 13.5297 9.275 11.5117C8.96328 10.9758 9.58672 11.0141 10.1664 9.85469C10.2648 9.65234 10.2156 9.47734 10.1391 9.32422C10.0625 9.17109 9.45547 7.67813 9.20391 7.07109C8.95781 6.48047 8.70625 6.5625 8.52031 6.55156C8.34531 6.54063 8.14297 6.54063 7.94062 6.54063C7.73828 6.54063 7.41016 6.61719 7.13125 6.91797C6.85234 7.22422 6.07031 7.95703 6.07031 9.45C6.07031 10.943 7.15859 12.3867 7.30625 12.5891C7.45938 12.7914 9.44453 15.8539 12.4906 17.1719C14.4156 18.0031 15.1703 18.0742 16.1328 17.932C16.718 17.8445 17.9266 17.1992 18.1781 16.4883C18.4297 15.7773 18.4297 15.1703 18.3531 15.0445C18.282 14.9078 18.0797 14.8313 17.7789 14.6836Z" fill="white"/>
</svg>
