<svg width="45" height="45" viewBox="0 0 45 45" fill="none" xmlns="http://www.w3.org/2000/svg">
<path d="M26.635 19.0218H35.3633C35.9879 19.0218 36.602 19.1814 37.1475 19.4855C37.693 19.7896 38.1517 20.2281 38.4801 20.7593C38.8084 21.2905 38.9956 21.8969 39.0238 22.5207C39.052 23.1446 38.9202 23.7653 38.641 24.324L32.2285 37.149C31.9242 37.7581 31.4561 38.2704 30.8768 38.6283C30.2975 38.9862 29.63 39.1757 28.949 39.1753H21.5893C21.2907 39.1753 20.992 39.1387 20.7007 39.0654L13.81 37.3432M26.635 19.0218V9.86106C26.635 8.88923 26.249 7.95721 25.5618 7.27002C24.8746 6.58283 23.9426 6.19678 22.9707 6.19678H22.7967C21.8806 6.19678 21.1386 6.9388 21.1386 7.85487C21.1386 9.16302 20.752 10.4419 20.0246 11.5301L13.81 20.8539V37.3432M26.635 19.0218H22.9707M13.81 37.3432H10.1457C9.1739 37.3432 8.24188 36.9571 7.55469 36.27C6.8675 35.5828 6.48145 34.6507 6.48145 33.6789V22.6861C6.48145 21.7142 6.8675 20.7822 7.55469 20.095C8.24188 19.4078 9.1739 19.0218 10.1457 19.0218H14.7261" stroke="#43A400" stroke-width="5" stroke-linecap="round" stroke-linejoin="round"/>
</svg>
