<svg width="51" height="48" viewBox="0 0 51 48" fill="none" xmlns="http://www.w3.org/2000/svg">
<path d="M30.2704 43.8642C29.8551 43.9636 29.4317 44.0518 29.0114 44.1261C27.9127 44.3223 27.1863 45.3367 27.3896 46.3924C27.4899 46.9117 27.7972 47.3443 28.2143 47.6267C28.6442 47.9172 29.1914 48.0484 29.749 47.9488C30.2495 47.8596 30.7539 47.7547 31.2489 47.6362C32.3338 47.3769 32.9948 46.3218 32.7241 45.2808C32.4541 44.2388 31.356 43.6048 30.2704 43.8642Z" fill="black"/>
<path d="M45.2429 17.8091C45.3847 18.2195 45.6555 18.5545 45.9975 18.7859C46.5046 19.1288 47.1682 19.2442 47.8014 19.0432C48.8631 18.7048 49.4383 17.6057 49.0871 16.5871C48.9271 16.1227 48.7495 15.6568 48.5604 15.2033C48.1451 14.2065 46.9673 13.7212 45.9285 14.1199C44.8908 14.5184 44.3851 15.6494 44.8007 16.6464C44.9597 17.0276 45.1085 17.419 45.2429 17.8091Z" fill="black"/>
<path d="M36.8497 41.088C36.4926 41.3144 36.1239 41.5335 35.7526 41.7387C34.7837 42.2753 34.4519 43.4642 35.0105 44.3939C35.1622 44.6468 35.3642 44.8535 35.5969 45.0115C36.2215 45.4333 37.0697 45.4965 37.776 45.1059C38.2175 44.8615 38.6565 44.6014 39.0819 44.3314C40.0145 43.7399 40.2712 42.534 39.6547 41.6382C39.0383 40.7422 37.7827 40.4961 36.8497 41.088Z" fill="black"/>
<path d="M50.3466 23.2395C50.3026 22.1667 49.3613 21.3317 48.2435 21.3736C47.127 21.4159 46.2566 22.3198 46.3004 23.3922C46.3172 23.8022 46.3215 24.2184 46.3117 24.628C46.296 25.3008 46.6387 25.9005 47.1714 26.2609C47.4887 26.4755 47.8738 26.6053 48.2914 26.6144C49.4089 26.6382 50.3351 25.7873 50.3598 24.714C50.371 24.2245 50.3668 23.7287 50.3466 23.2395Z" fill="black"/>
<path d="M44.9117 35.9745C44.0156 35.329 42.7478 35.5043 42.0767 36.363C41.8196 36.6918 41.549 37.0166 41.2718 37.3294C40.5475 38.1463 40.6498 39.3734 41.5008 40.0692C41.5493 40.1087 41.5983 40.145 41.6492 40.1791C42.4952 40.7516 43.671 40.6201 44.355 39.8495C44.686 39.4764 45.0086 39.0884 45.3158 38.6956C45.987 37.8369 45.8053 36.619 44.9117 35.9745Z" fill="black"/>
<path d="M47.8885 28.9479C46.8215 28.6268 45.6852 29.197 45.3509 30.2212C45.2229 30.6126 45.0811 31.0058 44.928 31.3908C44.5919 32.2385 44.9139 33.1713 45.6523 33.6711C45.7878 33.7624 45.937 33.8399 46.099 33.8987C47.1437 34.2814 48.3135 33.7782 48.7117 32.7749C48.8935 32.3171 49.0622 31.8493 49.2147 31.3841C49.5487 30.3596 48.9552 29.2691 47.8885 28.9479Z" fill="black"/>
<path d="M21.4365 44.1429C19.6263 43.8309 17.8899 43.2995 16.2432 42.5585C16.2237 42.5487 16.2063 42.5376 16.1859 42.5286C15.7978 42.3533 15.4105 42.1655 15.035 41.9693C15.0337 41.9678 15.0313 41.9669 15.0292 41.966C14.3403 41.6019 13.668 41.1989 13.0148 40.7575C3.49046 34.3166 1.20041 21.6377 7.9101 12.4944C9.36909 10.507 11.1347 8.84889 13.1031 7.53473C13.1273 7.51852 13.1516 7.50241 13.1756 7.48609C20.1119 2.89796 29.5303 2.58876 36.8955 7.30347L35.3137 9.49766C34.8739 10.1084 35.1444 10.5534 35.9143 10.4869L42.7856 9.89635C43.5565 9.82983 44.0175 9.18969 43.8102 8.47503L41.965 2.09278C41.7584 1.37728 41.2295 1.29164 40.7893 1.90226L39.2038 4.10164C33.7987 0.618451 27.3158 -0.70974 20.8812 0.361419C20.2332 0.469096 19.5942 0.600886 18.964 0.754295C18.9591 0.755126 18.9552 0.755646 18.9513 0.756477C18.9269 0.762194 18.9022 0.769781 18.8785 0.776121C13.3299 2.14402 8.48878 5.25075 5.03433 9.68339C5.00521 9.71654 4.97522 9.74897 4.94772 9.78504C4.83285 9.93356 4.71885 10.0855 4.60722 10.2375C4.42469 10.4865 4.24475 10.7418 4.07261 10.997C4.05106 11.0278 4.0346 11.0591 4.01577 11.0902C1.16512 15.3308 -0.209861 20.2335 0.0259428 25.2246C0.0264841 25.2411 0.0255097 25.2576 0.0259428 25.2744C0.048787 25.762 0.089062 26.2563 0.143736 26.7429C0.14666 26.7743 0.153913 26.8041 0.159435 26.8354C0.21595 27.3248 0.286864 27.8152 0.375751 28.3056C1.27912 33.3088 3.73763 37.811 7.4216 41.3142C7.43015 41.3224 7.43903 41.3313 7.44769 41.3398C7.45073 41.3431 7.45408 41.3447 7.457 41.3477C8.44677 42.2849 9.52337 43.1517 10.6826 43.9355C13.7162 45.9876 17.0942 47.3441 20.722 47.969C21.8227 48.1589 22.8742 47.4555 23.0717 46.3993C23.2691 45.3424 22.537 44.3321 21.4365 44.1429Z" fill="black"/>
<path d="M23.9406 8.47119C23.0352 8.47119 22.3018 9.17587 22.3018 10.0438V25.7118L37.2284 33.1194C37.4686 33.2388 37.7259 33.295 37.979 33.295C38.5719 33.295 39.1445 32.9851 39.4356 32.4443C39.8508 31.6725 39.5366 30.7243 38.7327 30.3257L25.5776 23.7967V10.0438C25.5775 9.17587 24.8449 8.47119 23.9406 8.47119Z" fill="black"/>
</svg>
