<svg width="58" height="48" viewBox="0 0 58 48" fill="none" xmlns="http://www.w3.org/2000/svg">
<path fill-rule="evenodd" clip-rule="evenodd" d="M28.8119 2.44068C25.0275 2.44068 21.3097 3.43685 18.0323 5.32908C14.7549 7.22131 12.0333 9.94291 10.141 13.2203L8.02734 12C10.1338 8.35154 13.1635 5.32183 16.812 3.21539C20.4604 1.10895 24.5991 4.84919e-07 28.8119 0C33.0248 -4.84919e-07 37.1635 1.10895 40.8119 3.21539C44.4604 5.32183 47.4901 8.35154 49.5966 12L47.4829 13.2203C45.5906 9.94291 42.869 7.2213 39.5916 5.32908C36.3142 3.43685 32.5964 2.44068 28.8119 2.44068Z" fill="black"/>
<path fill-rule="evenodd" clip-rule="evenodd" d="M20.0654 8.85172C22.7245 7.31652 25.7408 6.5083 28.8112 6.5083C31.8816 6.5083 34.8979 7.31652 37.557 8.85172C40.216 10.3869 42.4241 12.595 43.9593 15.2541L41.8456 16.4744C40.5246 14.1864 38.6246 12.2864 36.3366 10.9654C34.0486 9.64442 31.4532 8.94898 28.8112 8.94898C26.1692 8.94898 23.5738 9.64442 21.2858 10.9654C18.9977 12.2864 17.0978 14.1864 15.7768 16.4744L13.6631 15.2541C15.1983 12.595 17.4064 10.3869 20.0654 8.85172Z" fill="black"/>
<path fill-rule="evenodd" clip-rule="evenodd" d="M28.8119 45.5593C25.0275 45.5593 21.3097 44.5631 18.0323 42.6709C14.7549 40.7787 12.0333 38.0571 10.141 34.7797L8.02734 36C10.1338 39.6485 13.1635 42.6782 16.812 44.7846C20.4604 46.891 24.5991 48 28.8119 48C33.0248 48 37.1635 46.8911 40.8119 44.7846C44.4604 42.6782 47.4901 39.6485 49.5966 36L47.4829 34.7797C45.5906 38.0571 42.869 40.7787 39.5916 42.6709C36.3142 44.5631 32.5964 45.5593 28.8119 45.5593Z" fill="black"/>
<path fill-rule="evenodd" clip-rule="evenodd" d="M20.0654 39.1483C22.7245 40.6835 25.7408 41.4917 28.8112 41.4917C31.8816 41.4917 34.8979 40.6835 37.557 39.1483C40.216 37.6131 42.4241 35.405 43.9593 32.7459L41.8456 31.5256C40.5246 33.8136 38.6246 35.7136 36.3366 37.0346C34.0486 38.3556 31.4532 39.051 28.8112 39.051C26.1692 39.051 23.5738 38.3556 21.2858 37.0346C18.9977 35.7136 17.0978 33.8136 15.7768 31.5256L13.6631 32.7459C15.1983 35.405 17.4064 37.6131 20.0654 39.1483Z" fill="black"/>
<path d="M3.18457 1.62695L29.0151 17.8981L54.8456 1.62695V46.7795L29.0151 30.5083L3.18457 46.7795V1.62695Z" fill="#FBFDFF"/>
<path fill-rule="evenodd" clip-rule="evenodd" d="M5.79362 20.1704C6.11133 20.4881 6.11133 21.0032 5.79362 21.321L3.11465 23.9999H17.015C17.4643 23.9999 17.8285 24.3642 17.8285 24.8135C17.8285 25.2628 17.4643 25.627 17.015 25.627H3.11465L5.79362 28.306C6.11133 28.6237 6.11133 29.1388 5.79362 29.4566C5.4759 29.7743 4.96078 29.7743 4.64307 29.4566L0 24.8135L4.64307 20.1704C4.96078 19.8527 5.4759 19.8527 5.79362 20.1704Z" fill="black"/>
<path fill-rule="evenodd" clip-rule="evenodd" d="M6.35336 32.2002C6.78736 32.3165 7.04492 32.7626 6.92863 33.1966L5.94806 36.8561L17.9861 29.906C18.3752 29.6813 18.8728 29.8146 19.0974 30.2037C19.3221 30.5929 19.1888 31.0904 18.7996 31.3151L6.76162 38.2652L10.4212 39.2458C10.8552 39.3621 11.1127 39.8082 10.9964 40.2422C10.8801 40.6762 10.434 40.9338 10 40.8175L3.65747 39.118L5.35696 32.7755C5.47325 32.3414 5.91935 32.0839 6.35336 32.2002Z" fill="black"/>
<path fill-rule="evenodd" clip-rule="evenodd" d="M6.35336 16.6138C6.78736 16.4975 7.04492 16.0514 6.92863 15.6174L5.94806 11.9579L17.9861 18.908C18.3752 19.1327 18.8728 18.9993 19.0974 18.6102C19.3221 18.2211 19.1888 17.7235 18.7996 17.4989L6.76162 10.5487L10.4212 9.56816C10.8552 9.45186 11.1127 9.00576 10.9964 8.57175C10.8801 8.13775 10.434 7.88019 10 7.99648L3.65747 9.69596L5.35696 16.0385C5.47325 16.4725 5.91935 16.7301 6.35336 16.6138Z" fill="black"/>
<path fill-rule="evenodd" clip-rule="evenodd" d="M51.9759 20.1704C51.6582 20.4881 51.6582 21.0032 51.9759 21.321L54.6549 23.9999H40.7546C40.3053 23.9999 39.941 24.3642 39.941 24.8135C39.941 25.2628 40.3053 25.627 40.7546 25.627H54.6549L51.9759 28.306C51.6582 28.6237 51.6582 29.1388 51.9759 29.4566C52.2936 29.7743 52.8087 29.7743 53.1265 29.4566L57.7695 24.8135L53.1265 20.1704C52.8087 19.8527 52.2936 19.8527 51.9759 20.1704Z" fill="black"/>
<path fill-rule="evenodd" clip-rule="evenodd" d="M51.4162 32.1997C50.9822 32.316 50.7246 32.7621 50.8409 33.1961L51.8215 36.8556L39.7835 29.9055C39.3943 29.6808 38.8968 29.8141 38.6721 30.2033C38.4475 30.5924 38.5808 31.0899 38.9699 31.3146L51.0079 38.2648L47.3484 39.2453C46.9144 39.3616 46.6568 39.8077 46.7731 40.2417C46.8894 40.6757 47.3355 40.9333 47.7695 40.817L54.1121 39.1175L52.4126 32.775C52.2963 32.341 51.8502 32.0834 51.4162 32.1997Z" fill="black"/>
<path fill-rule="evenodd" clip-rule="evenodd" d="M51.4162 16.6138C50.9822 16.4975 50.7246 16.0514 50.8409 15.6174L51.8215 11.9579L39.7835 18.908C39.3943 19.1327 38.8968 18.9993 38.6721 18.6102C38.4475 18.2211 38.5808 17.7235 38.9699 17.4989L51.0079 10.5487L47.3484 9.56816C46.9144 9.45187 46.6568 9.00576 46.7731 8.57175C46.8894 8.13775 47.3355 7.88019 47.7695 7.99648L54.1121 9.69596L52.4126 16.0385C52.2963 16.4725 51.8502 16.7301 51.4162 16.6138Z" fill="black"/>
<path d="M23.9307 26.0973V24.0032H29.9591V26.0973H23.9307ZM23.9307 28.8683V27.4299H31.0591V28.8683H23.9307ZM25.6017 31.322V16.3037H30.9533C31.6725 16.3037 32.3141 16.4447 32.8782 16.7268C33.4564 17.0088 33.9429 17.3825 34.3377 17.8478C34.7467 18.3132 35.0569 18.835 35.2684 19.4131C35.4941 19.9913 35.6069 20.5836 35.6069 21.1899C35.6069 22.0219 35.4235 22.8187 35.0569 23.5802C34.7044 24.3276 34.1896 24.9339 33.5128 25.3993C32.85 25.8647 32.0321 26.0973 31.0591 26.0973H27.992V31.322H25.6017ZM27.992 24.0032H30.9322C31.4821 24.0032 31.9193 23.8834 32.2436 23.6436C32.5821 23.3898 32.8218 23.0514 32.9628 22.6283C33.1179 22.2053 33.1955 21.7258 33.1955 21.1899C33.1955 20.64 33.1038 20.1535 32.9205 19.7304C32.7513 19.3074 32.4833 18.983 32.1167 18.7574C31.7642 18.5177 31.32 18.3978 30.7841 18.3978H27.992V24.0032Z" fill="black"/>
</svg>
