<svg width="94" height="94" viewBox="0 0 94 94" fill="none" xmlns="http://www.w3.org/2000/svg">
<path d="M48.5666 53.2666C43.0316 53.2666 39.1666 57.1316 39.1666 62.6666V64.2332C39.1666 71.8472 43.4719 76.7666 50.1332 76.7666C56.7948 76.7666 61.0998 71.8472 61.0998 64.2332V62.6666C61.0998 57.1316 57.2334 53.2666 51.6998 53.2666H48.5666ZM57.9666 62.6666V64.2332C57.9666 67.0594 57.2021 73.6332 50.1332 73.6332C43.0629 73.6332 42.2998 67.0594 42.2998 64.2332V62.6666C42.2998 58.8596 44.7594 56.4 48.5664 56.4H51.7C55.5054 56.4 57.9666 58.8596 57.9666 62.6666Z" fill="#101010"/>
<path d="M54.7127 42.2951C55.5853 42.3515 56.3294 41.7155 56.3954 40.8537L57.9605 20.5121C58.3082 16.7835 63.3201 12.5331 67.3667 12.5331H70.5C74.6235 12.5331 79.6336 16.7662 79.9047 20.4871L81.4713 40.8537C81.5339 41.6746 82.2202 42.2997 83.0317 42.2997C83.0708 42.2997 83.1132 42.2982 83.154 42.2949C84.0156 42.2292 84.6611 41.4756 84.5954 40.6123L83.0288 20.2519C82.6103 14.5104 75.6731 9.3999 70.5 9.3999H67.3666C61.664 9.3999 55.3424 14.8613 54.8379 20.2459L53.2713 40.6125C53.2056 41.4757 53.8509 42.2294 54.7127 42.2951Z" fill="#101010"/>
<path d="M68.8519 19.8714C68.6388 19.2307 68.0405 18.7998 67.3667 18.7998C66.6914 18.7998 66.0929 19.2307 65.8799 19.8714C64.7033 23.4043 61.2363 23.4983 61.1001 23.4998C60.2337 23.4998 59.5334 24.2017 59.5334 25.0664V31.333C59.5334 36.5656 63.1086 43.8664 68.9334 43.8664C74.7567 43.8664 78.3334 36.5658 78.3334 31.333V25.0664C78.3334 24.2017 77.6316 23.4998 76.7668 23.4998C76.6993 23.4998 70.0301 23.401 68.8519 19.8714ZM75.2001 31.3332C75.2001 35.5915 72.4052 40.7332 68.9334 40.7332C65.4617 40.7332 62.6668 35.5915 62.6668 31.3332V26.4421C64.2006 26.0944 66.0947 25.2201 67.486 23.4403C69.6794 25.6352 73.1809 26.3215 75.2002 26.5361V31.3332H75.2001Z" fill="#101010"/>
<path d="M15.7262 24.6796C16.0255 27.6907 17.3353 30.3414 17.3979 30.4668C18.8172 33.3072 20.9651 37.5998 28.2 37.5998C35.4349 37.5998 37.5812 33.3072 39.0006 30.4668C39.0632 30.3414 40.373 27.6907 40.6739 24.6796C41.6422 24.147 42.3002 23.1145 42.3002 21.9332V18.7998C42.3002 17.6421 41.6688 16.6299 40.7336 16.0879V15.6666C40.7336 10.4825 36.516 6.2666 31.3336 6.2666H25.0669C19.8828 6.2666 15.6669 10.4825 15.6669 15.6666V16.0879C14.7297 16.6299 14.1 17.6421 14.1 18.7998V21.9332C14.1 23.1145 14.758 24.1468 15.7262 24.6796ZM17.2334 18.7998C18.0981 18.7998 18.8 18.0979 18.8 17.2332V15.6666C18.8 12.2104 21.6106 9.4 25.0666 9.4H31.3332C34.7893 9.4 37.5998 12.2106 37.5998 15.6666V17.2332C37.5998 18.0979 38.3 18.7998 39.1664 18.7998V21.9332C38.3 21.9332 37.5998 22.6351 37.5998 23.4998C37.5998 26.2102 36.2118 29.0396 36.1977 29.0662C34.5668 32.3279 33.1285 34.4664 28.1998 34.4664C23.2696 34.4664 21.8313 32.3279 20.2019 29.0677C20.1863 29.0394 18.7998 26.21 18.7998 23.4998C18.7998 22.6351 18.0979 21.9332 17.2332 21.9332V18.7998H17.2334Z" fill="#101010"/>
<path d="M54.8334 78.3332C54.5231 78.3332 54.2208 78.4255 53.9639 78.5965L50.1334 81.1501L46.3013 78.5963C46.0444 78.4255 45.742 78.333 45.4334 78.333C36.3703 78.333 34.4668 82.5928 34.4668 86.1664C34.4668 87.0311 35.167 87.733 36.0334 87.733C36.8981 87.733 37.6 87.0311 37.6 86.1664C37.6 84.9068 37.6 81.6043 44.9649 81.4695L49.2637 84.3365C49.7901 84.6874 50.4747 84.6874 51.0011 84.3365L55.3016 81.4695C62.6664 81.6043 62.6664 84.9068 62.6664 86.1664C62.6664 87.0311 63.3667 87.733 64.233 87.733C65.0978 87.733 65.7996 87.0311 65.7996 86.1664C65.8 82.5929 63.8965 78.3332 54.8334 78.3332Z" fill="#101010"/>
<path d="M83.1368 59.5332H83.1305C82.2673 59.5332 81.567 60.2303 81.5639 61.0936L81.4668 86.1602C81.4637 87.0249 82.1608 87.7299 83.0272 87.7332H83.0334C83.8967 87.7332 84.5969 87.0361 84.6 86.1728L84.6971 61.1062C84.7003 60.2413 84.0032 59.5363 83.1368 59.5332Z" fill="#101010"/>
<path d="M36.002 50.4419L37.3132 43.8996C45.2233 44.0782 50.9166 46.0491 52.6618 49.2545C53.0738 50.0144 54.0217 50.2947 54.7862 49.8811C55.5461 49.4674 55.8264 48.5164 55.4128 47.7567C52.9547 43.2385 46.1083 40.7537 36.1334 40.7537C35.3548 40.7396 34.6513 41.2472 34.4963 42.0117L32.9297 49.8247C32.7604 50.6738 33.3088 51.4994 34.158 51.6687C34.263 51.6906 34.3647 51.7001 34.4682 51.7001C35.1999 51.6999 35.8516 51.1861 36.002 50.4419Z" fill="#101010"/>
<path d="M90.1585 48.568C87.0879 45.5036 82.474 43.8853 76.8136 43.8853C75.9081 43.9025 75.2046 44.5699 75.2 45.4473C75.1983 45.7669 75.0887 53.2665 68.9334 53.2665C62.7764 53.2665 62.6683 45.7684 62.6668 45.4489C62.6651 44.5857 61.9634 43.8869 61.1002 43.8869C60.2338 43.8869 59.5336 44.5871 59.5336 45.4535C59.5336 48.9567 61.2256 55.3376 67.367 56.2729V64.2331C67.367 65.0979 68.0672 65.7997 68.9336 65.7997C69.7983 65.7997 70.5002 65.0979 70.5002 64.2331V56.2712C75.7877 55.4643 77.7789 50.6265 78.2269 47.0576C82.3833 47.2909 85.7217 48.5663 87.9434 50.7862C89.8297 52.6678 90.8668 55.2167 90.8668 57.9662V83.0328C90.8668 83.8975 91.567 84.5994 92.4334 84.5994C93.2981 84.5994 94 83.8975 94 83.0328V57.9663C94 54.3787 92.6355 51.0417 90.1585 48.568Z" fill="#101010"/>
<path d="M28.2 40.7334C26.4721 40.7334 25.0667 42.1386 25.0667 43.8668C25.0667 45.0214 25.7011 46.0209 26.6333 46.5645V57.9668C26.6333 58.8315 27.3335 59.5334 28.1999 59.5334C29.0646 59.5334 29.7665 58.8315 29.7665 57.9668V46.5645C30.6971 46.0209 31.3331 45.0214 31.3331 43.8668C31.3334 42.1386 29.9266 40.7334 28.2 40.7334Z" fill="#101010"/>
<path d="M10.9666 59.5332C10.1003 59.5332 9.40002 60.2351 9.40002 61.0998V86.1664C9.40002 87.0311 10.1003 87.733 10.9666 87.733C11.8314 87.733 12.5332 87.0311 12.5332 86.1664V61.0998C12.5334 60.2351 11.8315 59.5332 10.9666 59.5332Z" fill="#101010"/>
<path d="M21.8989 42.0006C21.7423 41.2392 21.0042 40.7551 20.2601 40.7534C12.0303 40.7534 5.73547 42.5159 2.52552 45.7182C0.850773 47.3914 0 49.4047 0 51.6998V83.0332C0 83.8979 0.700227 84.5998 1.56661 84.5998C2.43133 84.5998 3.13321 83.8979 3.13321 83.0332V51.6998C3.13321 50.2459 3.65957 49.0146 4.73911 47.9351C7.17998 45.4989 12.3718 44.0497 19.0945 43.8993L26.6663 80.2193C26.8418 81.0653 27.6751 81.6089 28.5196 81.4334C29.3673 81.2564 29.9109 80.426 29.7323 79.58L21.8989 42.0006Z" fill="#101010"/>
<path d="M41.4922 60.4023C41.4922 60.4023 46.5486 62.1529 50.0293 62.2383C53.82 62.3313 59.3926 60.4023 59.3926 60.4023" stroke="#101010" stroke-width="3"/>
<path d="M41.4922 18.4512L32.2207 14.6875L15.6055 18.4512" stroke="#101010" stroke-width="3"/>
</svg>
