<svg width="88" height="88" viewBox="0 0 88 88" fill="none" xmlns="http://www.w3.org/2000/svg">
<path d="M38.0001 37.9999C39.1046 37.9999 40 37.1045 40 35.9999C40 34.8954 39.1046 34 38.0001 34C36.8955 34 36.0001 34.8954 36.0001 35.9999C36.0001 37.1045 36.8955 37.9999 38.0001 37.9999Z" fill="#101010"/>
<path d="M45.9999 37.9999C47.1045 37.9999 47.9999 37.1045 47.9999 35.9999C47.9999 34.8954 47.1045 34 45.9999 34C44.8954 34 44 34.8954 44 35.9999C44 37.1045 44.8954 37.9999 45.9999 37.9999Z" fill="#101010"/>
<path d="M54.0001 37.9999C55.1046 37.9999 56 37.1045 56 35.9999C56 34.8954 55.1046 34 54.0001 34C52.8955 34 52.0001 34.8954 52.0001 35.9999C52.0001 37.1045 52.8955 37.9999 54.0001 37.9999Z" fill="#101010"/>
<path d="M38.0001 45.9999C39.1046 45.9999 40 45.1045 40 43.9999C40 42.8954 39.1046 42 38.0001 42C36.8955 42 36.0001 42.8954 36.0001 43.9999C36.0001 45.1045 36.8955 45.9999 38.0001 45.9999Z" fill="#101010"/>
<path d="M45.9999 45.9999C47.1045 45.9999 47.9999 45.1045 47.9999 43.9999C47.9999 42.8954 47.1045 42 45.9999 42C44.8954 42 44 42.8954 44 43.9999C44 45.1045 44.8954 45.9999 45.9999 45.9999Z" fill="#101010"/>
<path d="M54.0001 45.9999C55.1046 45.9999 56 45.1045 56 43.9999C56 42.8954 55.1046 42 54.0001 42C52.8955 42 52.0001 42.8954 52.0001 43.9999C52.0001 45.1045 52.8955 45.9999 54.0001 45.9999Z" fill="#101010"/>
<path d="M45.9999 53.9999C47.1045 53.9999 47.9999 53.1045 47.9999 51.9999C47.9999 50.8954 47.1045 50 45.9999 50C44.8954 50 44 50.8954 44 51.9999C44 53.1045 44.8954 53.9999 45.9999 53.9999Z" fill="#101010"/>
<path d="M54.0001 53.9999C55.1046 53.9999 56 53.1045 56 51.9999C56 50.8954 55.1046 50 54.0001 50C52.8955 50 52.0001 50.8954 52.0001 51.9999C52.0001 53.1045 52.8955 53.9999 54.0001 53.9999Z" fill="#101010"/>
<path d="M45.9999 61.9999C47.1045 61.9999 47.9999 61.1045 47.9999 59.9999C47.9999 58.8954 47.1045 58 45.9999 58C44.8954 58 44 58.8954 44 59.9999C44 61.1045 44.8954 61.9999 45.9999 61.9999Z" fill="#101010"/>
<path d="M54.0001 61.9999C55.1046 61.9999 56 61.1045 56 59.9999C56 58.8954 55.1046 58 54.0001 58C52.8955 58 52.0001 58.8954 52.0001 59.9999C52.0001 61.1045 52.8955 61.9999 54.0001 61.9999Z" fill="#101010"/>
<path d="M70.0001 61.9999C71.1046 61.9999 72 61.1045 72 59.9999C72 58.8954 71.1046 58 70.0001 58C68.8955 58 68.0001 58.8954 68.0001 59.9999C68.0001 61.1045 68.8955 61.9999 70.0001 61.9999Z" fill="#101010"/>
<path d="M76.0001 61.9999C77.1046 61.9999 78 61.1045 78 59.9999C78 58.8954 77.1046 58 76.0001 58C74.8955 58 74.0001 58.8954 74.0001 59.9999C74.0001 61.1045 74.8955 61.9999 76.0001 61.9999Z" fill="#101010"/>
<path d="M70.0001 69.9999C71.1046 69.9999 72 69.1045 72 67.9999C72 66.8954 71.1046 66 70.0001 66C68.8955 66 68.0001 66.8954 68.0001 67.9999C68.0001 69.1045 68.8955 69.9999 70.0001 69.9999Z" fill="#101010"/>
<path d="M76.0001 69.9999C77.1046 69.9999 78 69.1045 78 67.9999C78 66.8954 77.1046 66 76.0001 66C74.8955 66 74.0001 66.8954 74.0001 67.9999C74.0001 69.1045 74.8955 69.9999 76.0001 69.9999Z" fill="#101010"/>
<path d="M70.0001 77.9999C71.1046 77.9999 72 77.1045 72 75.9999C72 74.8954 71.1046 74 70.0001 74C68.8955 74 68.0001 74.8954 68.0001 75.9999C68.0001 77.1045 68.8955 77.9999 70.0001 77.9999Z" fill="#101010"/>
<path d="M76.0001 77.9999C77.1046 77.9999 78 77.1045 78 75.9999C78 74.8954 77.1046 74 76.0001 74C74.8955 74 74.0001 74.8954 74.0001 75.9999C74.0001 77.1045 74.8955 77.9999 76.0001 77.9999Z" fill="#101010"/>
<path d="M45.9999 69.9999C47.1045 69.9999 47.9999 69.1045 47.9999 67.9999C47.9999 66.8954 47.1045 66 45.9999 66C44.8954 66 44 66.8954 44 67.9999C44 69.1045 44.8954 69.9999 45.9999 69.9999Z" fill="#101010"/>
<path d="M54.0001 69.9999C55.1046 69.9999 56 69.1045 56 67.9999C56 66.8954 55.1046 66 54.0001 66C52.8955 66 52.0001 66.8954 52.0001 67.9999C52.0001 69.1045 52.8955 69.9999 54.0001 69.9999Z" fill="#101010"/>
<path d="M45.9999 77.9999C47.1045 77.9999 47.9999 77.1045 47.9999 75.9999C47.9999 74.8954 47.1045 74 45.9999 74C44.8954 74 44 74.8954 44 75.9999C44 77.1045 44.8954 77.9999 45.9999 77.9999Z" fill="#101010"/>
<path d="M23.9999 61.9999C25.1045 61.9999 25.9999 61.1045 25.9999 59.9999C25.9999 58.8954 25.1045 58 23.9999 58C22.8954 58 22 58.8954 22 59.9999C22 61.1045 22.8954 61.9999 23.9999 61.9999Z" fill="#101010"/>
<path d="M23.9999 69.9999C25.1045 69.9999 25.9999 69.1045 25.9999 67.9999C25.9999 66.8954 25.1045 66 23.9999 66C22.8954 66 22 66.8954 22 67.9999C22 69.1045 22.8954 69.9999 23.9999 69.9999Z" fill="#101010"/>
<path d="M23.9999 77.9999C25.1045 77.9999 25.9999 77.1045 25.9999 75.9999C25.9999 74.8954 25.1045 74 23.9999 74C22.8954 74 22 74.8954 22 75.9999C22 77.1045 22.8954 77.9999 23.9999 77.9999Z" fill="#101010"/>
<path d="M29.9999 61.9999C31.1045 61.9999 31.9999 61.1045 31.9999 59.9999C31.9999 58.8954 31.1045 58 29.9999 58C28.8954 58 28 58.8954 28 59.9999C28 61.1045 28.8954 61.9999 29.9999 61.9999Z" fill="#101010"/>
<path d="M29.9999 69.9999C31.1045 69.9999 31.9999 69.1045 31.9999 67.9999C31.9999 66.8954 31.1045 66 29.9999 66C28.8954 66 28 66.8954 28 67.9999C28 69.1045 28.8954 69.9999 29.9999 69.9999Z" fill="#101010"/>
<path d="M29.9999 77.9999C31.1045 77.9999 31.9999 77.1045 31.9999 75.9999C31.9999 74.8954 31.1045 74 29.9999 74C28.8954 74 28 74.8954 28 75.9999C28 77.1045 28.8954 77.9999 29.9999 77.9999Z" fill="#101010"/>
<path d="M54.0001 77.9999C55.1046 77.9999 56 77.1045 56 75.9999C56 74.8954 55.1046 74 54.0001 74C52.8955 74 52.0001 74.8954 52.0001 75.9999C52.0001 77.1045 52.8955 77.9999 54.0001 77.9999Z" fill="#101010"/>
<path d="M55 17.6L54 12.3999C53.7999 11.4 53 10.7999 52.0001 10.7999H48V1.99994C48 0.800078 47.1999 0 45.9999 0C44.7999 0 44 0.800078 44 1.99994V10.5999H39.9999C39 10.5999 38.1999 11.1999 38 12.1999L36.4 22H30.0001C28.8 22 28.0001 22.8001 28.0001 23.9999V41.9999C28.0001 43.1999 28.8002 43.9998 30.0001 43.9998C31.1999 43.9998 32 43.1998 32 41.9999V25.9999H38C39 25.9999 39.8 25.3999 39.9999 24.3999L41.8 14.8H50.3999L50.9999 18.3999C51.2 19.3999 52.2 20.2 53.4 19.9999C54.4 19.8 55.2 18.8 55 17.6Z" fill="#101010"/>
<path d="M61.9999 22H54H43.9999C42.7999 22 42 22.8001 42 23.9999C42 25.1998 42.8001 25.9999 43.9999 25.9999H54H60V77.9998C60 79.1998 60.8 79.9997 61.9999 79.9997C63.1997 79.9997 63.9998 79.1997 63.9998 77.9998V23.9999C64 22.8001 63.1999 22 61.9999 22Z" fill="#101010"/>
<path d="M84 49.9998H79.9999V43.9998C79.9999 43.3998 79.6 42.7998 79.1999 42.3998L73.9998 38.9998V33.9998C73.9998 33.1997 73.5998 32.5999 72.7997 32.1997L68.7997 30.1998C67.7997 29.7999 66.5997 30.1998 66.1997 30.9999C65.7998 31.8 66.1997 33.1999 66.9998 33.5998L69.7998 34.9998V39.9998C69.7998 40.5998 70.1998 41.1998 70.5999 41.5998L75.8 44.9998V49.9998H72.2001L68.6001 48.1998C67.6002 47.7998 66.4001 48.1998 66.0002 48.9998C65.6002 49.9998 66.0002 51.1998 66.8003 51.5998L70.8003 53.5997C71.4003 53.9997 71.6002 53.9997 72.0004 53.9997H82.0004V83.9996H6V25.9999H13.9999V33.9998C13.9999 35.1998 14.8 35.9997 15.9999 35.9997H19.9999V41.9997C19.9999 43.1997 20.8 43.9997 21.9998 43.9997C23.1997 43.9997 23.9998 43.1996 23.9998 41.9997V33.9998C23.9998 32.7998 23.1997 31.9999 21.9998 31.9999H17.9998V23.9999C17.9998 22.7999 17.1997 22 15.9999 22H4.00006C2.80003 22 2.00012 22.8001 2.00012 23.9999V85.9999C2.00012 87.1999 2.8002 87.9998 4.00006 87.9998H84.0001C85.2002 87.9998 86.0001 87.1998 86.0001 85.9999V51.9998C86.0001 50.7999 85.2 49.9998 84 49.9998Z" fill="#101010"/>
<path d="M38.0001 48H16.0001C14.8 48 14.0001 48.8001 14.0001 49.9999V77.9999C14.0001 79.2 14.8002 79.9999 16.0001 79.9999C17.2001 79.9999 18 79.1998 18 77.9999V51.9999H35.9999V77.9999C35.9999 79.2 36.8 79.9999 37.9999 79.9999C39.1999 79.9999 39.9998 79.1998 39.9998 77.9999V49.9999C40 48.7999 39.2001 48 38.0001 48Z" fill="#101010"/>
</svg>
