<svg width="146" height="150" viewBox="0 0 146 150" fill="none" xmlns="http://www.w3.org/2000/svg">
<path d="M60.8783 119.42C63.5105 119.42 65.6443 117.285 65.6443 114.651C65.6443 112.018 63.5105 109.883 60.8783 109.883C58.2462 109.883 56.1123 112.018 56.1123 114.651C56.1123 117.285 58.2462 119.42 60.8783 119.42Z" fill="#0B0E11"/>
<path d="M88.278 82.5157C87.6045 82.5157 86.9311 82.1528 86.5685 81.5827C86.1541 80.9089 86.1023 80.0796 86.5167 79.4058C87.4492 77.9027 88.019 76.2959 88.278 74.5854C88.4334 73.6525 88.4335 72.7196 88.3817 71.7866C83.6156 68.1066 81.0254 63.2862 81.0254 58.0512C81.0254 47.2703 92.4224 38.5107 106.461 38.5107C120.5 38.5107 131.897 47.2703 131.897 58.0512C131.897 68.8322 120.5 77.5917 106.461 77.5917C104.234 77.5917 102.058 77.3843 99.934 76.9179C98.5353 78.3173 96.8776 79.5094 95.0644 80.4424C93.0441 81.479 90.8683 82.2047 88.5889 82.5157C88.4335 82.4638 88.3298 82.5157 88.278 82.5157ZM106.41 42.5536C94.6499 42.5536 85.1179 49.499 85.1179 57.9994C85.1179 62.1459 87.3974 66.0333 91.4899 68.9359C91.9562 69.2468 92.267 69.7651 92.3188 70.2835C92.5778 71.8902 92.5778 73.497 92.3188 75.1037C92.2152 75.8812 92.0597 76.6069 91.8525 77.3325C92.3188 77.1252 92.7332 76.9697 93.1476 76.7106C94.8572 75.8294 96.4113 74.6373 97.6546 73.186C98.1727 72.6159 98.9497 72.3567 99.675 72.5641C101.851 73.0824 104.13 73.3415 106.41 73.3415C118.169 73.3415 127.701 66.3961 127.701 57.8957C127.753 49.4472 118.169 42.5536 106.41 42.5536Z" fill="#0B0E11"/>
<path d="M138.271 90.705C138.168 90.705 138.064 90.705 137.961 90.705C135.681 90.394 133.505 89.6684 131.485 88.6318C129.672 87.6988 128.066 86.5067 126.615 85.1072C120.347 86.403 113.509 85.7292 107.862 83.3449L109.468 79.5613C114.649 81.7382 121.072 82.2565 126.874 80.8571C127.6 80.6497 128.377 80.9089 128.895 81.479C130.19 82.9303 131.692 84.1224 133.402 85.0036C133.816 85.2109 134.283 85.4182 134.697 85.6255C134.49 84.8999 134.334 84.1224 134.231 83.3967C134.024 81.79 134.024 80.1832 134.231 78.5765C134.334 78.0063 134.593 77.5398 135.06 77.2289C139.152 74.2745 141.432 70.387 141.432 66.2924C141.432 61.7312 138.634 57.3774 133.713 54.423L135.837 50.8984C142.001 54.6303 145.576 60.2281 145.576 66.2924C145.576 71.5273 142.986 76.3477 138.22 80.0277C138.116 80.9607 138.168 81.8936 138.323 82.8266C138.582 84.537 139.152 86.1439 140.085 87.647C140.499 88.3208 140.499 89.2019 140.033 89.8239C139.567 90.3422 138.945 90.705 138.271 90.705Z" fill="#0B0E11"/>
<path d="M141.174 145.905H0.628906V150H141.174V145.905Z" fill="#0B0E11"/>
<path d="M94.6544 141.81H25.3919C20.4187 141.81 16.3779 137.767 16.3779 132.791V96.2501C16.3779 91.2743 20.4187 87.2314 25.3919 87.2314H94.6544C99.6276 87.2314 103.668 91.2743 103.668 96.2501V132.791C103.668 137.767 99.6276 141.81 94.6544 141.81ZM25.3919 91.3261C22.6463 91.3261 20.4705 93.5549 20.4705 96.2501V132.791C20.4705 135.538 22.6981 137.715 25.3919 137.715H94.6544C97.4 137.715 99.5758 135.487 99.5758 132.791V96.2501C99.5758 93.5031 97.3482 91.3261 94.6544 91.3261H25.3919Z" fill="#0B0E11"/>
<path d="M100.815 149.998H19.1715C14.6127 149.998 10.8828 146.266 10.8828 141.705V138.388C10.8828 137.247 11.8153 136.314 12.955 136.314H21.2437V140.409H14.9753V141.653C14.9753 143.985 16.8403 145.851 19.1715 145.851H100.815C103.146 145.851 105.011 143.985 105.011 141.653V140.409H98.743V136.314H107.032C108.171 136.314 109.104 137.247 109.104 138.388V141.705C109.156 146.266 105.426 149.998 100.815 149.998Z" fill="#0B0E11"/>
<path d="M36.8918 65.3595C29.3802 65.3595 25.184 60.0727 24.9768 59.8653C24.4069 59.0879 24.4069 58.0512 25.0286 57.2738C31.2969 49.7582 30.7789 44.8342 29.95 36.6448C29.6392 33.4831 29.2766 29.8549 29.2766 25.6047C29.2766 17.5708 35.3895 7.98202 46.7864 5.8051C49.9465 2.95437 56.0076 0 60.9291 0C76.1595 0 90.5611 12.7505 90.5611 26.1749C90.5611 29.7513 90.2503 32.8093 89.9913 35.0899L85.8987 34.6234C86.1578 32.4983 86.4168 29.5958 86.4168 26.1749C86.4168 15.0311 73.7766 4.09464 60.8773 4.09464C56.9401 4.09464 51.5524 6.73808 49.1694 9.12233C48.8586 9.43332 48.496 9.64063 48.0815 9.69246C37.358 11.4547 33.3691 20.3697 33.3691 25.5529C33.3691 29.5957 33.7317 33.0684 34.0426 36.1783C34.8196 44.0049 35.4931 50.2765 29.3284 58.3622C30.9343 59.7617 34.2498 61.7831 39.0158 61.0056L39.6893 65.0485C38.705 65.2558 37.7725 65.3595 36.8918 65.3595Z" fill="#0B0E11"/>
<path d="M25.4401 81.4789L22.5908 78.5246C27.0978 74.1189 32.6927 71.6828 38.0803 69.7132C43.8824 67.5881 47.716 65.774 47.716 60.7464V59.1914H51.8085V60.7464C51.8085 69.0394 44.7113 71.6309 39.479 73.5487C34.5576 75.3628 29.429 77.5916 25.4401 81.4789Z" fill="#0B0E11"/>
<path d="M79.8373 73.5488C72.1703 70.7499 69.2174 66.3961 68.2331 62.4569C65.8501 63.4417 62.8454 63.9082 59.2709 63.9082H59.1155C49.8944 63.9082 38.1348 52.5571 38.1348 39.8065V28.1963C38.1348 27.5743 38.4456 26.9523 38.9118 26.5895C38.9636 26.5377 45.75 21.2509 49.5835 15.1866C49.8944 14.7201 50.4124 14.3573 50.9304 14.2537C51.5003 14.15 52.0701 14.3055 52.5363 14.6165C61.8093 21.7174 78.9048 28.9219 79.0602 28.9738L77.4543 32.7575C76.7809 32.4465 61.6021 26.0712 51.7593 19.1258C48.3402 23.7388 43.9368 27.6262 42.1755 29.1293V39.7547C42.1755 50.0692 51.6557 59.7617 59.0119 59.7617H59.1673C64.4514 59.7617 67.197 58.5696 68.5439 57.5329C69.1656 57.0665 69.9944 56.9628 70.6679 57.3256C71.3413 57.6884 71.8076 58.3622 71.8076 59.1397C71.8076 63.9082 74.8641 67.329 81.0806 69.6615L79.8373 73.5488Z" fill="#0B0E11"/>
<path d="M60.4116 80.3891C53.3144 80.3891 46.7353 74.1693 44.6631 68.3642L48.5484 67.0166C50.1025 71.4741 55.283 76.2944 60.4116 76.2944C65.3331 76.2944 69.7364 73.1846 71.3424 68.5197L75.2277 69.8673C73.0001 76.1908 67.0426 80.3891 60.4116 80.3891Z" fill="#0B0E11"/>
<path d="M53.8825 33.9502H49.7899C48.6503 33.9502 47.7178 33.0173 47.7178 31.877C47.7178 30.7367 48.6503 29.8037 49.7899 29.8037H53.8825C55.0222 29.8037 55.9547 30.7367 55.9547 31.877C55.9029 33.0173 54.9704 33.9502 53.8825 33.9502Z" fill="#0B0E11"/>
<path d="M59.4759 46.2343H57.9218C56.7821 46.2343 55.8496 45.3013 55.8496 44.161C55.8496 43.0207 56.7821 42.0877 57.9218 42.0877H59.4759C59.7349 42.0877 59.994 41.8804 59.994 41.5694V35.6088C59.994 32.0324 62.3252 29.8037 66.1587 29.8037H68.9044C70.0441 29.8037 70.9765 30.7367 70.9765 31.877C70.9765 33.0173 70.0441 33.9502 68.9044 33.9502H66.1587C64.2419 33.9502 64.0865 34.6758 64.0865 35.6606V41.6212C64.0865 44.161 62.0143 46.2343 59.4759 46.2343Z" fill="#0B0E11"/>
<path d="M52.0161 39.7016C52.9603 39.7016 53.7257 38.9358 53.7257 37.9912C53.7257 37.0465 52.9603 36.2808 52.0161 36.2808C51.072 36.2808 50.3066 37.0465 50.3066 37.9912C50.3066 38.9358 51.072 39.7016 52.0161 39.7016Z" fill="#0B0E11"/>
<path d="M67.6646 39.7016C68.6088 39.7016 69.3742 38.9358 69.3742 37.9912C69.3742 37.0465 68.6088 36.2808 67.6646 36.2808C66.7205 36.2808 65.9551 37.0465 65.9551 37.9912C65.9551 38.9358 66.7205 39.7016 67.6646 39.7016Z" fill="#0B0E11"/>
<path d="M68.1287 55.823H66.1602V51.7283H68.1287C72.6875 51.7283 76.3656 48.6184 76.3656 44.7829V40.1699H80.4582V44.7829C80.4582 50.8472 74.9151 55.823 68.1287 55.823Z" fill="#0B0E11"/>
<path d="M63.9327 50.3262H60.151C58.5451 50.3262 57.25 51.6219 57.25 53.2287V54.2654C57.25 55.8721 58.5451 57.1679 60.151 57.1679H63.9327C65.5387 57.1679 66.8338 55.8721 66.8338 54.2654V53.2287C66.8338 51.6219 65.5387 50.3262 63.9327 50.3262Z" fill="#0B0E11"/>
<path d="M97.3462 61.06C98.8626 61.06 100.092 59.8302 100.092 58.313C100.092 56.7958 98.8626 55.5659 97.3462 55.5659C95.8298 55.5659 94.6006 56.7958 94.6006 58.313C94.6006 59.8302 95.8298 61.06 97.3462 61.06Z" fill="#0B0E11"/>
<path d="M106.877 61.06C108.394 61.06 109.623 59.8302 109.623 58.313C109.623 56.7958 108.394 55.5659 106.877 55.5659C105.361 55.5659 104.132 56.7958 104.132 58.313C104.132 59.8302 105.361 61.06 106.877 61.06Z" fill="#0B0E11"/>
<path d="M116.46 61.06C117.977 61.06 119.206 59.8302 119.206 58.313C119.206 56.7958 117.977 55.5659 116.46 55.5659C114.944 55.5659 113.715 56.7958 113.715 58.313C113.715 59.8302 114.944 61.06 116.46 61.06Z" fill="#0B0E11"/>
</svg>
