<svg width="157" height="157" viewBox="0 0 157 157" fill="none" xmlns="http://www.w3.org/2000/svg">
<path d="M48.8969 106.7C21.9522 110.395 3 118.996 3 129.051C3 142.438 36.6053 153.28 78.082 153.28C119.559 153.28 153.164 142.438 153.164 129.051C153.164 118.996 134.151 110.334 107.086 106.7" stroke="white" stroke-width="6" stroke-miterlimit="10" stroke-linecap="round" stroke-linejoin="round"/>
<path d="M78.0803 128.991L117.922 70.478C128.095 53.2148 125.733 30.8029 110.656 16.0838C101.695 7.36129 89.8876 3 78.0803 3C66.2731 3 54.4658 7.36129 45.5044 16.0838C30.4275 30.8635 28.066 53.2753 38.2384 70.478L78.0803 128.991Z" stroke="white" stroke-width="6" stroke-miterlimit="10" stroke-linecap="round" stroke-linejoin="round"/>
<path d="M95.2248 60.9998H61.7612C60.7926 60.9998 60 60.2069 60 59.2379V36.3332C60 35.3641 60.7926 34.5713 61.7612 34.5713H95.2248C96.1935 34.5713 96.9861 35.3641 96.9861 36.3332V59.2379C96.9861 60.2069 96.1935 60.9998 95.2248 60.9998Z" stroke="white" stroke-width="5" stroke-miterlimit="10" stroke-linecap="round" stroke-linejoin="round"/>
<path d="M60.4189 35.1881L65.6586 24.947C65.9669 24.3524 66.5613 24 67.2218 24H89.7216C90.3821 24 90.9765 24.3744 91.2847 24.947L96.5904 35.2542" stroke="white" stroke-width="5" stroke-miterlimit="10" stroke-linecap="round" stroke-linejoin="round"/>
<path d="M74.971 24L72.3291 34.5714V41.619H84.6578V34.5714L82.0159 24" stroke="white" stroke-width="5" stroke-miterlimit="10" stroke-linecap="round" stroke-linejoin="round"/>
</svg>
