<svg width="146" height="146" viewBox="0 0 146 146" fill="none" xmlns="http://www.w3.org/2000/svg">
<path d="M19.9861 61.7662C15.0202 55.5565 12.0293 47.7097 12.0293 39.129C12.0293 19.2016 28.2249 3 48.1448 3C68.0648 3 84.2603 19.2016 84.2603 39.129C84.2603 59.0564 68.0648 75.2581 48.1448 75.2581" stroke="black" stroke-width="5" stroke-miterlimit="10" stroke-linecap="round" stroke-linejoin="round"/>
<path d="M61.6879 39.1295H48.1445V16.5488" stroke="black" stroke-width="5" stroke-miterlimit="10" stroke-linecap="round" stroke-linejoin="round"/>
<path d="M41.3742 143C45.1141 143 48.1459 139.967 48.1459 136.225C48.1459 132.484 45.1141 129.451 41.3742 129.451C37.6343 129.451 34.6025 132.484 34.6025 136.225C34.6025 139.967 37.6343 143 41.3742 143Z" stroke="black" stroke-width="5" stroke-miterlimit="10" stroke-linecap="round" stroke-linejoin="round"/>
<path d="M118.117 143C121.857 143 124.889 139.967 124.889 136.225C124.889 132.484 121.857 129.451 118.117 129.451C114.377 129.451 111.346 132.484 111.346 136.225C111.346 139.967 114.377 143 118.117 143Z" stroke="black" stroke-width="5" stroke-miterlimit="10" stroke-linecap="round" stroke-linejoin="round"/>
<path d="M34.6027 136.226H21.0594C18.5764 136.226 16.5449 134.194 16.5449 131.71V120.419" stroke="black" stroke-width="5" stroke-miterlimit="10" stroke-linecap="round" stroke-linejoin="round"/>
<path d="M111.346 136.225H48.1436" stroke="black" stroke-width="5" stroke-miterlimit="10" stroke-linecap="round" stroke-linejoin="round"/>
<path d="M142.948 124.936V129.452V131.71C142.948 134.194 140.917 136.226 138.434 136.226H124.891" stroke="black" stroke-width="5" stroke-miterlimit="10" stroke-linecap="round" stroke-linejoin="round"/>
<path d="M16.5449 93.3218C16.5449 109.128 16.5449 120.419 16.5449 120.419" stroke="black" stroke-width="5" stroke-miterlimit="10" stroke-linecap="round" stroke-linejoin="round"/>
<path d="M142.948 124.935V111.104C142.948 108.451 141.763 105.854 139.675 104.161L129.404 95.5802L115.24 70.798C112.814 66.5641 108.356 63.9673 103.503 63.9673H88.7744" stroke="black" stroke-width="5" stroke-miterlimit="10" stroke-linecap="round" stroke-linejoin="round"/>
<path d="M100.061 95.5797H88.7744V72.999" stroke="black" stroke-width="5" stroke-miterlimit="10" stroke-linecap="round" stroke-linejoin="round"/>
<path d="M118.117 95.5798C118.117 86.5475 109.088 88.8056 109.088 88.8056V100.096" stroke="black" stroke-width="5" stroke-miterlimit="10" stroke-linecap="round" stroke-linejoin="round"/>
<path d="M16.5449 118.161H25.5738V127.193" stroke="black" stroke-width="5" stroke-miterlimit="10" stroke-linecap="round" stroke-linejoin="round"/>
<path d="M3 84.2905H7.51444" stroke="black" stroke-width="5" stroke-miterlimit="10" stroke-linecap="round" stroke-linejoin="round"/>
<path d="M16.5449 84.2905H25.5738" stroke="black" stroke-width="5" stroke-miterlimit="10" stroke-linecap="round" stroke-linejoin="round"/>
<path d="M39.1159 75.2583H12.0293" stroke="black" stroke-width="5" stroke-miterlimit="10" stroke-linecap="round" stroke-linejoin="round"/>
<path d="M142.497 109.128H133.92V118.161H142.949" stroke="black" stroke-width="5" stroke-miterlimit="10" stroke-linecap="round" stroke-linejoin="round"/>
<path d="M16.5449 127.193H25.5738" stroke="black" stroke-width="5" stroke-miterlimit="10" stroke-linecap="round" stroke-linejoin="round"/>
</svg>
